<?xml version="1.0" encoding="UTF-8"?>
<svg width="29px" height="29px" viewBox="0 0 29 29" version="1.1" xmlns="http://www.w3.org/2000/svg" xmlns:xlink="http://www.w3.org/1999/xlink">
    <title>Path</title>
    <g id="Page-1" stroke="none" stroke-width="1" fill="none" fill-rule="evenodd">
        <g id="DKO_podklady_loga_piktogramy" transform="translate(-982.000000, -362.000000)" fill="#FFFFFF" fill-rule="nonzero">
            <path d="M996.201,362.555 C988.387,362.555 982.055,368.889 982.055,376.703 C982.055,383.797 987.276,389.653 994.087,390.675 L994.087,380.451 L990.585,380.451 L990.585,376.733 L994.087,376.733 L994.087,374.258 C994.087,370.161 996.083,368.365 999.486,368.365 C1001.117,368.365 1001.979,368.482 1002.388,368.539 L1002.388,371.785 L1000.066,371.785 C998.621,371.785 998.117,373.154 998.117,374.7 L998.117,376.734 L1002.352,376.734 L1001.776,380.453 L998.117,380.453 L998.117,390.705 C1005.022,389.768 1010.348,383.864 1010.348,376.702 C1010.35,368.889 1004.016,362.555 996.201,362.555" id="Path"></path>
        </g>
    </g>
</svg>