<?xml version="1.0" encoding="UTF-8"?>
<svg width="50px" height="47px" viewBox="0 0 50 47" version="1.1" xmlns="http://www.w3.org/2000/svg" xmlns:xlink="http://www.w3.org/1999/xlink">
    <title>ico-kluby</title>
    <g id="Page-1" stroke="none" stroke-width="1" fill="none" fill-rule="evenodd">
        <g id="DKO_podklady_loga_piktogramy" transform="translate(-626.000000, 0.000000)" fill="#000000" fill-rule="nonzero">
            <path d="M671.453,46.999 L669.851,46.999 C669.851,34.052 667.352,25.354 665.016,25.354 C662.687,25.354 660.194,34.052 660.194,46.999 L658.596,46.999 C658.596,38.365 659.947,23.754 665.016,23.754 C670.098,23.754 671.453,38.365 671.453,46.999 Z M652.742,46.999 L651.14,46.999 C651.14,32.025 647.974,22.831 645.702,22.831 C643.416,22.831 640.246,32.025 640.246,46.999 L638.644,46.999 C638.644,34.507 641.111,21.231 645.686,21.231 C650.275,21.231 652.742,34.507 652.742,46.999 Z M627.976,26.218 L626.703,25.251 C630.463,20.298 636.181,17.41 642.388,17.325 L642.417,17.325 C647.979,17.325 652.507,12.793 652.507,7.222 C652.507,5.084 651.849,3.039 650.603,1.315 L651.897,0.377 C653.344,2.377 654.108,4.744 654.108,7.221 C654.108,13.591 648.995,18.789 642.663,18.922 L642.663,18.924 L642.408,18.925 C636.698,19.003 631.438,21.662 627.976,26.218 Z M675.699011,24.017 L674.095,24.015 C674.1,21.614 673.169,19.356 671.48,17.657 C669.786,15.958 667.533,15.019 665.134,15.015 L665.134,15.015 C660.175,15.015 656.148,19.037 656.141,23.983 L654.539,23.979 C654.552,18.154 659.293,13.416 665.115,13.416 L665.117,13.416 C667.965,13.421 670.619,14.526 672.614,16.529 C674.605,18.528 675.703,21.188 675.699011,24.017 Z M667.896,23.719 C666.757,23.719 665.738,23.19 665.074,22.365 C664.408,23.19 663.391,23.719 662.252,23.719 C660.253,23.719 658.627,22.093 658.627,20.094 C658.627,19.219 658.942,18.373 659.517,17.715 L660.724,18.765 C660.406,19.132 660.228,19.605 660.228,20.094 C660.228,21.211 661.134,22.119 662.252,22.119 C663.341,22.119 664.234,21.25 664.274,20.169 C664.274,20.144 664.274,20.119 664.274,20.094 L665.877,20.094 C665.877,20.119 665.877,20.144 665.877,20.169 C665.915,21.251 666.808,22.119 667.897,22.119 C669.013,22.119 669.921,21.21 669.921,20.094 C669.921,19.607 669.743,19.134 669.425,18.764 L670.634,17.716 C671.206,18.377 671.519,19.221 671.519,20.093 C671.518,22.093 669.895,23.719 667.896,23.719 Z M644.424,14.316 C642.248,14.316 640.481,12.545 640.481,10.368 C640.481,8.192 642.249,6.421 644.424,6.421 C646.599,6.421 648.365,8.192 648.365,10.368 C648.365,12.545 646.599,14.316 644.424,14.316 Z M644.424,8.022 C643.133,8.022 642.079,9.075 642.079,10.369 C642.079,11.664 643.133,12.717 644.424,12.717 C645.716,12.717 646.768,11.664 646.768,10.369 C646.768,9.075 645.716,8.022 644.424,8.022 Z M665.076,12.802 C663.076,12.802 661.449,11.177 661.449,9.178 C661.449,7.178 663.076,5.551 665.076,5.551 C667.07,5.551 668.695,7.178 668.695,9.178 C668.695,11.176 667.07,12.802 665.076,12.802 Z M665.076,7.152 C663.958,7.152 663.051,8.06 663.051,9.178 C663.051,10.294 663.958,11.201 665.076,11.201 C666.189,11.201 667.097001,10.293 667.097001,9.178 C667.098,8.06 666.189,7.152 665.076,7.152 Z" id="ico-kluby"></path>
        </g>
    </g>
</svg>