<?xml version="1.0" encoding="UTF-8"?>
<svg width="40px" height="39px" viewBox="0 0 40 39" version="1.1" xmlns="http://www.w3.org/2000/svg" xmlns:xlink="http://www.w3.org/1999/xlink">
    <title>ico-deti</title>
    <g id="Page-1" stroke="none" stroke-width="1" fill="none" fill-rule="evenodd">
        <g id="DKO_podklady_loga_piktogramy" transform="translate(-822.000000, -98.000000)" fill="#000000" fill-rule="nonzero">
            <path d="M845.329,136.361 L844.136,135.841 C845.234,133.322 845.603,130.529 845.201,127.763 C844.66,124.017 842.731,120.625 839.906,118.212 C839.643,118.501 839.365,118.795 839.076,119.098 C835.678,122.547 833.811,126.918 833.811,131.411 C833.811,133.074 833.995,134.723 834.316,135.934 L833.06,136.267 C832.583,134.466 832.511,132.452 832.511,131.411 C832.511,126.575 834.511,121.879 838.141,118.19 C838.4,117.922 838.645,117.662 838.878,117.408 C837.956,116.747 836.958,116.184 835.891,115.735 L834.614,115.173 C832.189,114.144 830.12,112.594 828.541,110.645 L828.541,112.757 L827.24,112.757 L827.24,105.401 L822.873,99.375 L823.924,98.611 L827.891,104.083 L831.856,98.611 L832.909,99.375 L828.542,105.401 L828.542,108.401 C828.584,108.468 828.627,108.535 828.667,108.602 C830.169,110.95 832.377,112.797 835.062,113.951 L835.134,113.982 L836.407,114.542 C837.599,115.045 838.719,115.682 839.745,116.432 C843.04,112.565 843.404,110.138 843.404,105.885 C843.404,105.229 843.366,104.576 843.289,103.947 L844.581,103.793 C844.663,104.475 844.704,105.178 844.704,105.886 C844.704,110.374 844.295,113.078 840.766,117.239 C843.819,119.851 845.901,123.523 846.487,127.577 C846.923,130.583 846.523,133.621 845.329,136.361 Z M855.809,136.101 L854.513,136.101 L854.513,128.836 L848.58,128.834 L848.744,128.052 C849.473,124.563 851.359,121.276 854.219,118.509 C850.413,114.867 848.905,112.259 848.519,108.736 L849.813,108.594 C850.112,111.346 851.103,113.733 855.168,117.616 C859.231,113.733 860.221,111.345 860.524,108.594 L861.815,108.736 C861.429,112.259 859.919,114.868 856.116,118.509 C858.971,121.273 860.86,124.563 861.591,128.057 L861.757,128.84 L855.809,128.837 L855.809,136.101 L855.809,136.101 Z M850.203,127.536 L860.134,127.539 C859.348,124.576 857.645,121.786 855.168,119.399 C852.688,121.789 850.987,124.577 850.203,127.536 Z M837.759,113.875 C837.302,113.875 836.846,113.792 836.4,113.627 C835.431,113.265 834.663,112.545 834.235,111.603 C834.173,111.465 834.119,111.326 834.073,111.183 L833.278,111.544 L833.011,110.952 C831.941,108.599 832.984,105.812 835.33,104.74 C836.468,104.221 837.736,104.177 838.903,104.614 C839.872,104.976 840.675,105.633 841.22,106.494 L842.582,105.872 L843.122,107.055 L841.071,107.99 C841.149,108.119 841.219,108.252 841.281,108.39 C842.166,110.335 841.306,112.639 839.362,113.526 C838.854,113.758 838.308,113.875 837.759,113.875 Z M835.267,110.638 C835.304,110.783 835.355,110.926 835.418,111.066 C835.704,111.692 836.213,112.169 836.856,112.411 C837.5,112.652 838.201,112.626 838.826,112.342 C840.116,111.751 840.688,110.219 840.097,108.925 C840.035,108.787 839.963,108.655 839.878,108.531 L835.267,110.638 Z M837.268,105.616 C836.792,105.616 836.318,105.718 835.872,105.92 C834.378,106.605 833.613,108.251 833.981,109.796 L840.022,107.037 C839.635,106.489 839.093,106.069 838.449,105.829 C838.065,105.687 837.666,105.616 837.268,105.616 Z M855.162,113.838 C853.027,113.838 851.292,112.097 851.292,109.959 C851.292,108.441 852.165,107.126 853.435,106.486 C853.351,106.372 853.281,106.25 853.221,106.118 L849.073,107.696 L849.073,102.798 L853.221,104.376 C853.553,103.635 854.299,103.118 855.16,103.118 L855.162,103.118 L855.162,103.118 C856.027,103.118 856.772,103.635 857.102,104.376 L861.25,102.798 L861.25,107.696 L857.104,106.118 C857.042,106.248 856.972,106.372 856.89,106.486 C858.16,107.124 859.032,108.441 859.032,109.959 C859.033,112.098 857.298,113.838 855.162,113.838 Z M855.162,107.378 C853.745,107.378 852.591,108.536 852.591,109.959 C852.591,111.38 853.745,112.537 855.162,112.537 C856.58,112.537 857.733,111.38 857.733,109.959 C857.733,108.536 856.58,107.378 855.162,107.378 Z M854.335,105.248 C854.335,105.706 854.705,106.078 855.162,106.078 C855.619,106.078 855.991,105.705 855.991,105.248 C855.991,104.791 855.619,104.418 855.162,104.417 C854.705,104.418 854.335,104.791 854.335,105.248 Z M850.372,104.683 L850.372,105.812 L851.856,105.249 L850.372,104.683 Z M858.47,105.248 L859.955,105.811 L859.955,104.682 L858.47,105.248 Z" id="ico-deti"></path>
        </g>
    </g>
</svg>