<?xml version="1.0" encoding="UTF-8"?>
<svg width="63px" height="60px" viewBox="0 0 63 60" version="1.1" xmlns="http://www.w3.org/2000/svg" xmlns:xlink="http://www.w3.org/1999/xlink">
    <title>ico-plakaty</title>
    <g id="Page-1" stroke="none" stroke-width="1" fill="none" fill-rule="evenodd">
        <g id="DKO_podklady_loga_piktogramy" transform="translate(0.000000, -253.000000)" fill="#000000" fill-rule="nonzero">
            <g id="ico-plakaty" transform="translate(0.000000, 253.000000)">
                <path d="M15.91,56.819 L6.646,42.155 L15.954,36.276 L25.218,50.937 L15.91,56.819 Z M8.7,56.812 L2.198,40.734 L12.404,36.605 L12.411,36.624 L4.44,41.661 L12.931,55.1 L8.7,56.812 Z M62.721,28.779 L25.965,8.812 L25.298,10.041 L40.286,18.183 C41.368,19.707 41.941,21.504 41.941,23.384 C41.941,28.353 37.897,32.396 32.927,32.396 L32.927,32.397 L32.907,32.397 C27.652,32.468 22.795,34.798 19.448,38.813 L16.45,34.069 L13.785,35.752 L13.286,34.522 L0.113,39.849 L7.817,58.892 L13.797,56.473 L15.41,59.025 L27.424,51.434 L20.238,40.062 C23.326,36.145 27.931,33.862 32.93,33.795 L33.149,33.794 L33.149,33.782 C38.786,33.662 43.337,29.049 43.337,23.383 C43.337,22.003 43.07,20.661 42.557,19.414 L62.054,30.006 L62.721,28.779 Z" id="Shape"></path>
                <path d="M19.195,11.381 L23.834,2.868 L25.063,3.535 L20.423,12.049 L19.195,11.381 Z M26.958,2.977 L23.275,0.971 L17.299,11.941 L20.98,13.947 L26.958,2.977 Z" id="Shape"></path>
                <path d="M32.617,26.187 C32.617,25.028 33.56,24.083 34.72,24.083 C35.88,24.083 36.824,25.027 36.824,26.187 C36.824,27.348 35.881,28.292 34.72,28.292 C33.561,28.292 32.617,27.348 32.617,26.187 M38.221,26.187 C38.221,24.257 36.65,22.686 34.72,22.686 C32.789,22.686 31.219,24.257 31.219,26.187 C31.219,28.119 32.789,29.69 34.72,29.69 C36.65,29.69 38.221,28.119 38.221,26.187" id="Shape"></path>
                <path d="M35.844,35.876 C31.778,35.876 29.584,47.698 29.584,58.82 L30.982,58.82 C30.982,45.472 33.814,37.275 35.861,37.275 C37.892,37.275 40.723,45.472 40.723,58.82 L42.1200003,58.82 C42.121,47.699 39.927,35.876 35.844,35.876" id="Path"></path>
            </g>
        </g>
    </g>
</svg>