<?xml version="1.0" encoding="UTF-8"?>
<svg width="29px" height="41px" viewBox="0 0 29 41" version="1.1" xmlns="http://www.w3.org/2000/svg" xmlns:xlink="http://www.w3.org/1999/xlink">
    <title>ico-kontakty</title>
    <g id="Page-1" stroke="none" stroke-width="1" fill="none" fill-rule="evenodd">
        <g id="DKO_podklady_loga_piktogramy" transform="translate(-829.000000, -6.000000)" fill="#000000" fill-rule="nonzero">
            <g id="ico-kontakty" transform="translate(829.000000, 6.000000)">
                <path d="M2.255,39.556 L27.248,39.556 L27.248,1.433 L2.255,1.433 L2.255,39.556 Z M28.677,40.987 L0.823,40.987 L0.823,0.001 L28.677,0.001 L28.677,40.987 Z" id="Shape"></path>
                <path d="M27.964,37.497 L15.999,37.497 L15.999,36.78 C16.006,35.197 14.72,33.908 13.138,33.905 L13.134,33.905 C11.553,33.905 10.267,35.194 10.263,36.781 L10.263,37.496 L6.156,37.496 L6.156,16.255 L13.135,4.485 L19.778,15.736 L27.937,15.736 L27.937,17.168 L18.959,17.168 L13.129,7.298 L7.588,16.65 L7.588,36.065 L8.894,36.065 C9.239,34.028 11.008,32.472 13.135,32.472 L13.141,32.472 C15.27,32.476 17.036,34.032 17.374,36.065 L27.965,36.065 L27.965,37.497 L27.964,37.497 Z" id="Path"></path>
                <path d="M12.849,20.171 L13.387,20.171 L13.387,19.634 L12.849,19.634 L12.849,20.171 Z M14.818,21.606 L11.418,21.606 L11.418,18.204 L14.818,18.204 L14.818,21.606 Z" id="Shape"></path>
                <path d="M12.849,25.653 L13.387,25.653 L13.387,25.116 L12.849,25.116 L12.849,25.653 Z M14.818,27.085 L11.418,27.085 L11.418,23.685 L14.818,23.685 L14.818,27.085 Z" id="Shape"></path>
                <rect id="Rectangle" x="18.922" y="23.691" width="1.434" height="13.09"></rect>
            </g>
        </g>
    </g>
</svg>