<?xml version="1.0" encoding="UTF-8"?>
<svg width="28px" height="35px" viewBox="0 0 28 35" version="1.1" xmlns="http://www.w3.org/2000/svg" xmlns:xlink="http://www.w3.org/1999/xlink">
    <title>ico-reklama</title>
    <g id="Page-1" stroke="none" stroke-width="1" fill="none" fill-rule="evenodd">
        <g id="DKO_podklady_loga_piktogramy" transform="translate(-14.000000, -179.000000)" fill="#000000" fill-rule="nonzero">
            <g id="ico-reklama" transform="translate(14.000000, 179.000000)">
                <path d="M24.547,34.225 L17.021,34.225 L16.827,34.07 C15.823,33.268 14.896,32.478 14.042,31.701 C13.219,32.465 12.331,33.244 11.37,34.038 L11.175,34.199 L3.641,34.199 L3.641,32.786 L10.665,32.786 C11.502,32.089 12.279,31.406 13.005,30.734 C3.474,21.586 3.902,14.642 3.977,13.919 C3.98,11.977 4.286,10.128 4.833,8.456 L0.276,8.456 L0.276,7.043 L5.369,7.043 C7.126,3.013 10.368,0.305 14.069,0.305 C17.771,0.305 21.013,3.013 22.769,7.043 L27.86,7.043 L27.86,8.456 L23.305,8.456 C23.852,10.129 24.157,11.978 24.162,13.92 C24.233,14.631 24.624,21.378 15.068,30.722 C15.824,31.408 16.638,32.104 17.516,32.811 L24.546,32.811 L24.546,34.225 L24.547,34.225 Z M6.317,8.457 C5.724,10.113 5.39,11.983 5.39,13.96 L5.384,14.05 C5.376,14.121 4.718,20.812 14.034,29.758 C23.455,20.559 22.764,14.121 22.756,14.05 L22.749,13.96 C22.749,11.982 22.416,10.112 21.822,8.457 L6.317,8.457 Z M6.911,7.044 L21.228,7.044 C19.663,3.83 17.037,1.717 14.069,1.717 C11.101,1.717 8.477,3.83 6.911,7.044 Z M14.077,24.242 C11.967,24.242 9.989,23.334 8.649,21.751 L9.728,20.838 C10.798,22.103 12.383,22.829 14.077,22.829 C15.763,22.829 17.344,22.107 18.417,20.848 L19.492,21.764 C18.152,23.338 16.177,24.242 14.077,24.242 Z" id="Shape"></path>
                <path d="M10.938,13.423 C10.938,14.021 10.454,14.504 9.859,14.504 C9.264,14.504 8.778,14.021 8.778,13.423 C8.778,12.828 9.264,12.343 9.859,12.343 C10.454,12.343 10.938,12.829 10.938,13.423" id="Path"></path>
                <path d="M19.351,13.461 C19.351,14.057 18.868,14.541 18.272,14.541 C17.676,14.541 17.192,14.057 17.192,13.461 C17.192,12.863 17.676,12.38 18.272,12.38 C18.867,12.381 19.351,12.864 19.351,13.461" id="Path"></path>
            </g>
        </g>
    </g>
</svg>