<?xml version="1.0" encoding="UTF-8"?>
<svg width="32px" height="56px" viewBox="0 0 32 56" version="1.1" xmlns="http://www.w3.org/2000/svg" xmlns:xlink="http://www.w3.org/1999/xlink">
    <title>ico-vystavy</title>
    <g id="Page-1" stroke="none" stroke-width="1" fill="none" fill-rule="evenodd">
        <g id="DKO_podklady_loga_piktogramy" transform="translate(-430.000000, -81.000000)" fill="#000000" fill-rule="nonzero">
            <g id="ico-vystavy" transform="translate(430.000000, 81.000000)">
                <path d="M17.556,19.082 C17.976,18.858 18.427,18.742 18.901,18.742 C19.953,18.742 20.919,19.317 21.416,20.246 C22.157,21.631 21.637,23.361 20.252,24.106 C19.831,24.331 19.379,24.442 18.907,24.442 C17.851,24.442 16.888,23.869 16.391,22.94 C15.649,21.553 16.17,19.825 17.556,19.082 M18.907,25.865 C19.605,25.865 20.303,25.689 20.923,25.358 C22.997,24.244 23.781,21.647 22.667,19.574 C21.92,18.183 20.476,17.322 18.901,17.322 C18.199,17.322 17.504,17.496 16.881,17.828 C14.809,18.941 14.025,21.537 15.139,23.612 C15.886,25.001 17.326,25.864 18.907,25.865" id="Shape"></path>
                <path d="M12.94,55.367 L14.359,55.367 C14.359,43.901 20.299,34.509 27.745,33.942 L27.745,55.367 L29.169,55.367 L29.169,32.495 L28.456,32.495 C19.9,32.496 12.94,42.755 12.94,55.367" id="Path"></path>
                <path d="M6.376,24.783 L3.391,16.185 C3.574,16.008 3.713,15.786 3.802,15.521 C4.043,14.815 3.908,14.167 3.4,13.63 C2.733,12.926 2.039,12.247 1.358,11.555 C1.194,11.39 1.029,11.225 0.851,11.046 C0.838,11.147 0.825,11.228 0.817,11.308 C0.694,12.407 0.573,13.502 0.451,14.599 C0.407,15.014 0.485,15.401 0.692,15.763 C0.98,16.267 1.5,16.587 2.045,16.646 L5.032,25.25 L6.376,24.783 Z" id="Path"></path>
                <path d="M30.292,8.234 C30.24,8.473 30.132,8.591 29.909,8.647 C29.695,8.703 29.479,8.745 29.261,8.785 L28.876,8.86 C28.791,8.879 28.704,8.894 28.615,8.921 C28.343,9.006 28.114,9.146 27.939,9.325 C27.881,9.051 27.743,8.78 27.528,8.548 C27.405,8.418 27.259,8.298 27.094,8.191 C26.729,7.956 26.295,7.822 25.809,7.797 C25.118,7.759 24.504,7.936 24.007,8.313 C23.466,8.725 23.331,9.217 23.314,9.56 C23.297,9.927 23.397,10.462 23.973,10.923 C24.558,11.392 25.221,11.461 25.666,11.475 L25.83,11.465 C25.926,11.455 26.045,11.446 26.164,11.423 C26.347,11.392 26.516,11.34 26.673,11.279 C26.901,11.603 27.108,11.936 27.301,12.276 C27.286,12.294 27.275,12.312 27.256,12.327 C26.96,12.625 26.579,12.846 26.012,13.044 C25.421,13.25 24.77,13.374 24.022,13.423 C23.941,13.428 23.862,13.43 23.784,13.43 L23.29,13.423 L22.675,13.43 C21.159,13.342 19.821,13.002 18.598,12.403 C17.687,11.959 16.991,11.414 16.471,10.74 C15.831,9.917 15.546,9.006 15.595,7.951 C15.688,5.972 16.626,4.493 18.46,3.436 C19.327,2.936 20.296,2.609 21.428,2.442 C21.95,2.364 22.477,2.326 22.99,2.326 C24.407,2.326 25.815,2.621 27.172,3.218 C28.064,3.606 28.773,4.094 29.344,4.707 C29.888,5.292 30.215,5.922 30.342,6.634 C30.426,7.149 30.413,7.687 30.292,8.234 M25.916,10.027 C25.845,10.038 25.766,10.044 25.707,10.047 L25.662,10.052 C25.29,10.038 25.05,9.966 24.858,9.814 C24.729,9.709 24.731,9.658 24.732,9.627 C24.736,9.598 24.736,9.541 24.866,9.443 C25.074,9.286 25.316,9.214 25.629,9.214 L25.737,9.217 C25.974,9.229 26.167,9.282 26.325,9.384 C26.39,9.428 26.448,9.473 26.486,9.517 C26.558,9.591 26.579,9.651 26.485,9.752 C26.355,9.893 26.175,9.979 25.916,10.027 M31.735,6.387 C31.564,5.414 31.109,4.523 30.383,3.741 C29.677,2.98 28.81,2.385 27.737,1.918 C25.647,1.004 23.446,0.707 21.215,1.038 C19.905,1.232 18.772,1.615 17.747,2.206 C15.493,3.505 14.289,5.416 14.174,7.885 C14.109,9.273 14.502,10.526 15.345,11.614 C16.003,12.461 16.86,13.136 17.97,13.682 C19.553,14.453 21.287,14.844 23.276,14.87 L23.948,14.88 L23.95,14.844 C24.003,14.844 24.056,14.843 24.108,14.84 C24.988,14.782 25.766,14.634 26.481,14.381 C27.082,14.172 27.557,13.917 27.952,13.6 C28.773,15.569 29.083,17.725 28.804,19.897 C28.387,23.168 26.722,26.078 24.113,28.094 C21.507,30.111 18.268,30.99 15.002,30.573 C11.731,30.154 8.82,28.489 6.803,25.882 L5.68,26.75 C7.929,29.658 11.175,31.518 14.82,31.984 C15.415,32.059 16.005,32.097 16.594,32.097 C19.621,32.097 22.549,31.101 24.981,29.219 C27.889,26.97 29.747,23.725 30.214,20.078 C30.56,17.375 30.104,14.692 28.931,12.297 C29.066,11.91 29.101,11.499 29.019,11.065 C28.977,10.846 28.96,10.605 28.956,10.313 C28.956,10.313 28.977,10.298 29.032,10.278 C29.07,10.267 29.108,10.26 29.203,10.244 L29.523,10.182 C29.775,10.136 30.025,10.086 30.272,10.022 C31.01,9.826 31.51,9.298 31.679,8.541 C31.842,7.814 31.858,7.087 31.735,6.387" id="Shape"></path>
            </g>
        </g>
    </g>
</svg>