<?xml version="1.0" encoding="UTF-8"?>
<svg width="28px" height="42px" viewBox="0 0 28 42" version="1.1" xmlns="http://www.w3.org/2000/svg" xmlns:xlink="http://www.w3.org/1999/xlink">
    <title>ico-akce</title>
    <g id="Page-1" stroke="none" stroke-width="1" fill="none" fill-rule="evenodd">
        <g id="DKO_podklady_loga_piktogramy" transform="translate(-19.000000, -7.000000)" fill="#000000" fill-rule="nonzero">
            <path d="M46.983,48.171 L19.586,48.171 L19.586,7.547 L46.983,7.547 L46.983,48.171 Z M40.507,46.519 L45.329,46.519 L45.329,41.703 L40.507,41.703 L40.507,46.519 Z M34.032,46.519 L38.855,46.519 L38.855,41.703 L34.032,41.703 L34.032,46.519 Z M27.636,46.519 L32.378,46.519 L32.378,41.703 L27.636,41.703 L27.636,46.519 Z M21.241,46.519 L25.982,46.519 L25.982,41.703 L21.241,41.703 L21.241,46.519 L21.241,46.519 Z M40.507,40.049 L45.329,40.049 L45.329,35.235 L40.507,35.235 L40.507,40.049 Z M34.032,40.049 L38.855,40.049 L38.855,35.235 L34.032,35.235 L34.032,40.049 Z M27.636,40.049 L32.378,40.049 L32.378,35.235 L27.636,35.235 L27.636,40.049 Z M21.241,40.049 L25.982,40.049 L25.982,35.235 L21.241,35.235 L21.241,40.049 L21.241,40.049 Z M40.507,33.581 L45.329,33.581 L45.329,28.686 L40.507,28.686 L40.507,33.581 Z M34.032,33.581 L38.855,33.581 L38.855,28.686 L34.032,28.686 L34.032,33.581 Z M27.636,33.581 L32.378,33.581 L32.378,28.686 L27.636,28.686 L27.636,33.581 Z M21.241,33.581 L25.982,33.581 L25.982,28.686 L21.241,28.686 L21.241,33.581 L21.241,33.581 Z M40.507,27.032 L45.329,27.032 L45.329,22.218 L40.507,22.218 L40.507,27.032 Z M34.032,27.032 L38.855,27.032 L38.855,22.218 L34.032,22.218 L34.032,27.032 Z M27.636,27.032 L32.378,27.032 L32.378,22.218 L27.636,22.218 L27.636,27.032 Z M21.241,27.032 L25.982,27.032 L25.982,22.218 L21.241,22.218 L21.241,27.032 L21.241,27.032 Z M40.507,20.564 L45.329,20.564 L45.329,15.748 L40.507,15.748 L40.507,20.564 Z M34.032,20.564 L38.855,20.564 L38.855,15.748 L34.032,15.748 L34.032,20.564 Z M28.789,20.564 L31.288,20.564 L30.032,19.309 L28.789,20.564 Z M21.241,20.564 L25.982,20.564 L25.982,15.748 L21.241,15.748 L21.241,20.564 L21.241,20.564 Z M27.636,16.917 L27.636,19.378 L28.86,18.14 L27.636,16.917 Z M31.193,18.133 L32.378,19.318 L32.378,16.936 L31.193,18.133 Z M28.807,15.749 L30.023,16.965 L31.225,15.749 L28.807,15.749 Z M40.507,14.095 L45.329,14.095 L45.329,9.201 L40.507,9.201 L40.507,14.095 Z M34.032,14.095 L38.855,14.095 L38.855,9.201 L34.032,9.201 L34.032,14.095 Z M27.636,14.095 L32.378,14.095 L32.378,9.201 L27.636,9.201 L27.636,14.095 Z M21.241,14.095 L25.982,14.095 L25.982,9.201 L21.241,9.201 L21.241,14.095 L21.241,14.095 Z" id="ico-akce"></path>
        </g>
    </g>
</svg>