<?xml version="1.0" encoding="UTF-8"?>
<svg width="28px" height="35px" viewBox="0 0 28 35" version="1.1" xmlns="http://www.w3.org/2000/svg" xmlns:xlink="http://www.w3.org/1999/xlink">
    <title>ico-reklama-2</title>
    <g id="Page-1" stroke="none" stroke-width="1" fill="none" fill-rule="evenodd">
        <g id="DKO_podklady_loga_piktogramy" transform="translate(-1027.000000, -178.000000)" fill="#000000" fill-rule="nonzero">
            <g id="ico-reklama-2" transform="translate(1027.000000, 178.000000)">
                <path d="M24.667,34.574 L17.313,34.574 L17.119,34.413 C16.144,33.613 15.249,32.827 14.419,32.053 C13.621,32.813 12.759,33.592 11.833,34.382 L11.634,34.55 L4.274,34.55 L4.274,33.137 L11.112,33.137 C11.93,32.437 12.691,31.749 13.4,31.074 C4.088,21.884 4.51,14.91 4.583,14.193 C4.588,12.242 4.888,10.385 5.424,8.705 L0.99,8.705 L0.99,7.291 L5.945,7.291 C7.661,3.246 10.83,0.526 14.447,0.526 C18.066,0.526 21.234,3.246 22.951,7.291 L27.9,7.291 L27.9,8.705 L23.473,8.705 C24.008,10.385 24.308,12.243 24.312,14.194 C24.381,14.9 24.767,21.672 15.433,31.062 C16.171,31.751 16.962,32.45 17.822,33.161 L24.669,33.161 L24.669,34.574 L24.667,34.574 Z M6.899,8.705 C6.321,10.368 5.996,12.246 5.996,14.233 L5.991,14.32 C5.98,14.391 5.339,21.108 14.409,30.083 C23.584,20.854 22.91,14.391 22.902,14.32 L22.898,14.233 C22.898,12.246 22.57,10.368 21.991,8.705 L6.899,8.705 Z M7.475,7.291 L21.417,7.291 C19.893,4.061 17.338,1.939 14.445,1.939 C11.555,1.939 8.998,4.061 7.475,7.291 Z" id="Shape"></path>
                <path d="M11.389,13.81 C11.389,14.391 10.92,14.863 10.337,14.863 C9.758,14.863 9.285,14.391 9.285,13.81 C9.285,13.229 9.758,12.756 10.337,12.756 C10.92,12.756 11.389,13.229 11.389,13.81" id="Path"></path>
                <path d="M19.599,13.846 C19.599,14.428 19.124,14.899 18.544,14.899 C17.962,14.899 17.492,14.428 17.492,13.846 C17.492,13.265 17.962,12.793 18.544,12.793 C19.124,12.793 19.599,13.265 19.599,13.846" id="Path"></path>
                <path d="M16.615,22.238 C16.615,23.432 15.645,24.401 14.454,24.401 C13.256,24.401 12.291,23.432 12.291,22.238 C12.291,21.044 13.256,20.076 14.454,20.076 C15.646,20.076 16.615,21.044 16.615,22.238" id="Path"></path>
            </g>
        </g>
    </g>
</svg>