<?xml version="1.0" encoding="UTF-8"?>
<svg width="28px" height="35px" viewBox="0 0 28 35" version="1.1" xmlns="http://www.w3.org/2000/svg" xmlns:xlink="http://www.w3.org/1999/xlink">
    <title>ico-reklama-3</title>
    <g id="Page-1" stroke="none" stroke-width="1" fill="none" fill-rule="evenodd">
        <g id="DKO_podklady_loga_piktogramy" transform="translate(-16.000000, -353.000000)" fill="#000000" fill-rule="nonzero">
            <g id="ico-reklama-3" transform="translate(16.000000, 353.000000)">
                <path d="M24.23,34.341 L16.878,34.341 L16.682,34.181 C15.711,33.38 14.814,32.594 13.985,31.821 C13.188,32.581 12.327,33.358 11.399,34.15 L11.201,34.317 L3.842,34.317 L3.842,32.904 L10.68,32.904 C11.497,32.203 12.257,31.518 12.965,30.841 C3.657,21.654 4.081,14.684 4.153,13.968 C4.157,12.019 4.455,10.161 4.99,8.481 L0.56,8.481 L0.56,7.07 L5.513,7.07 C7.229,3.026 10.397,0.306 14.013,0.306 C17.628,0.306 20.797,3.026 22.513,7.07 L27.463,7.07 L27.463,8.481 L23.037,8.481 C23.571,10.162 23.87,12.019 23.873,13.968 C23.943,14.672 24.331,21.444 14.998,30.83 C15.734,31.518 16.529,32.219 17.386,32.929 L24.23,32.929 L24.23,34.341 L24.23,34.341 Z M6.469,8.479 C5.891,10.142 5.566,12.019 5.566,14.004 L5.56,14.093 C5.552,14.164 4.912,20.877 13.977,29.848 C23.147,20.625 22.475,14.163 22.466,14.093 L22.461,14.004 C22.461,12.019 22.135,10.142 21.558,8.479 L6.469,8.479 Z M7.044,7.068 L20.982,7.068 C19.458,3.838 16.902,1.716 14.013,1.716 C11.123,1.717 8.567,3.838 7.044,7.068 Z" id="Shape"></path>
                <path d="M13.313,17.464 C13.313,16.691 13.494,16.33 14.061,15.664 C14.496,15.158 15.075,14.578 15.075,13.794 C15.075,12.947 14.374,12.574 13.615,12.574 C12.819,12.574 12.227,12.768 11.829,13.058 L11.744,11.911 C12.277,11.683 12.939,11.514 13.748,11.514 C15.064,11.514 16.355,12.273 16.355,13.71 C16.355,14.977 15.353,15.642 14.702,16.619 C14.509,16.91 14.448,17.162 14.448,17.499 L14.448,17.718 L13.314,17.718 L13.314,17.464 L13.313,17.464 Z M13.204,18.731 L14.557,18.731 L14.557,20.082 L13.204,20.082 L13.204,18.731 Z" id="Shape"></path>
            </g>
        </g>
    </g>
</svg>