<?xml version="1.0" encoding="UTF-8"?>
<svg width="38px" height="38px" viewBox="0 0 38 38" version="1.1" xmlns="http://www.w3.org/2000/svg" xmlns:xlink="http://www.w3.org/1999/xlink">
    <title>ico-divadlo-circle</title>
    <g id="Page-1" stroke="none" stroke-width="1" fill="none" fill-rule="evenodd">
        <g id="DKO_podklady_loga_piktogramy" transform="translate(-425.000000, -268.000000)" fill="#000000" fill-rule="nonzero">
            <path d="M445.063,305.299 C440.423,305.299 435.007,303.55 431.627,300.377 C427.981,296.955 425.89,292.125 425.89,287.126 C425.89,277.106 434.043,268.953 444.063,268.953 C448.607,268.953 452.958,270.64 456.312,273.7 C460.078,277.138 462.237,282.03 462.237,287.126 C462.237,297.146 455.084,305.299 445.063,305.299 Z M444.063,270.312 C434.792,270.312 427.249,277.854 427.249,287.125 C427.249,291.818 429.133,296.173 432.557,299.386 C435.686,302.323 439.771,303.939 444.064,303.939 C453.335,303.939 460.879,296.396 460.879,287.125 C460.879,282.41 458.88,277.883 455.397,274.704 C452.293,271.872 448.268,270.312 444.063,270.312 Z M440.519,299.342 C436.334,299.342 432.929,295.937 432.929,291.753 L432.929,282.485 L439.789,282.485 L439.789,276.185 L454.966,276.185 L454.966,285.451 C454.966,289.426 451.896,292.696 448.002,293.014 C447.4,296.601 444.274,299.342 440.519,299.342 Z M434.289,291.753 C434.289,295.188 437.084,297.982 440.519,297.982 C443.527,297.982 446.041,295.84 446.622,293.002 C446.066,292.947 445.53,292.832 445.017,292.664 C444.593,294.758 442.737,296.34 440.519,296.34 C437.989,296.34 435.929,294.282 435.929,291.752 L437.287,291.752 C437.287,293.533 438.737,294.981 440.518,294.981 C442.18,294.981 443.553,293.719 443.729,292.104 C441.381,290.812 439.788,288.314 439.788,285.451 L439.788,283.844 L434.289,283.844 L434.289,291.753 Z M441.148,283.845 L441.148,285.452 C441.148,288.675 443.606,291.334 446.748,291.65 L446.748,283.845 L441.148,283.845 Z M448.107,291.639 C451.2,291.276 453.607,288.64 453.607,285.451 L453.607,277.543 L441.148,277.543 L441.148,282.484 L448.107,282.484 L448.107,287.235 L450.481,287.235 L450.481,288.594 L448.107,288.594 L448.107,291.639 Z M445.632,288.596 L442.578,288.596 L442.578,287.237 L445.632,287.237 L445.632,288.596 Z M438.476,288.596 L435.422,288.596 L435.422,287.237 L438.476,287.237 L438.476,288.596 Z M451.847,281.646 L448.942,280.704 L449.361,279.412 L452.266,280.354 L451.847,281.646 Z M443.211,281.646 L442.792,280.354 L445.697,279.412 L446.116,280.704 L443.211,281.646 Z" id="ico-divadlo-circle"></path>
        </g>
    </g>
</svg>