<?xml version="1.0" encoding="UTF-8"?>
<svg width="65px" height="52px" viewBox="0 0 65 52" version="1.1" xmlns="http://www.w3.org/2000/svg" xmlns:xlink="http://www.w3.org/1999/xlink">
    <title>ico-kosik</title>
    <g id="Page-1" stroke="none" stroke-width="1" fill="none" fill-rule="evenodd">
        <g id="DKO_podklady_loga_piktogramy" transform="translate(-629.000000, -352.000000)" fill="#000106" fill-rule="nonzero">
            <path d="M662.821,403.286 C660.469,403.286 658.558,401.243 658.558,398.737 C658.558,396.223 660.469,394.181 662.821,394.181 C665.172,394.181 667.086,396.223 667.086,398.737 C667.086,401.243 665.172,403.286 662.821,403.286 Z M662.821,396.029 C661.431,396.029 660.299,397.241 660.299,398.737 C660.299,400.224 661.432,401.439 662.821,401.439 C664.213,401.439 665.344001,400.224 665.344001,398.737 C665.345,397.241 664.213,396.029 662.821,396.029 Z M642.541,403.286 C640.194,403.286 638.284,401.243 638.284,398.737 C638.284,396.223 640.194,394.181 642.541,394.181 C644.893,394.181 646.804,396.223 646.804,398.737 C646.804,401.243 644.893,403.286 642.541,403.286 Z M642.541,396.029 C641.151,396.029 640.02,397.241 640.02,398.737 C640.02,400.224 641.151,401.439 642.541,401.439 C643.933,401.439 645.065,400.224 645.065,398.737 C645.065,397.241 643.933,396.029 642.541,396.029 Z M671.241,390.646 L634.244,390.646 L629.606,358.302 L650.031,358.302 L650.031,360.147 L631.629,360.147 L635.738,388.801 L669.755,388.801 L673.648,362.593 L692.917,352.313 L693.702,353.962 L675.225,363.819 L671.241,390.646 Z" id="ico-kosik"></path>
        </g>
    </g>
</svg>