<?xml version="1.0" encoding="UTF-8"?>
<svg width="38px" height="38px" viewBox="0 0 38 38" version="1.1" xmlns="http://www.w3.org/2000/svg" xmlns:xlink="http://www.w3.org/1999/xlink">
    <title>ico-studio</title>
    <g id="Page-1" stroke="none" stroke-width="1" fill="none" fill-rule="evenodd">
        <g id="DKO_podklady_loga_piktogramy" transform="translate(-828.000000, -180.000000)" fill="#000000" fill-rule="nonzero">
            <path d="M846.897,217.231 C842.249,217.231 837.823,215.48 834.431,212.3 C830.775,208.871 828.679,204.029 828.679,199.017 C828.679,188.973 836.853,180.801 846.897,180.801 C851.453,180.801 855.814,182.491 859.172,185.56 C862.947,189.007 865.112,193.912 865.112,199.017 C865.113,209.06 856.941,217.231 846.897,217.231 Z M846.897,182.16 C837.602,182.16 830.039,189.722 830.039,199.017 C830.039,203.723 831.93,208.088 835.36,211.309 C838.498,214.251 842.596,215.872 846.897,215.872 C856.193,215.872 863.753,208.311 863.753,199.017 C863.753,194.293 861.748,189.754 858.256,186.564 C855.147,183.724 851.114,182.16 846.897,182.16 Z M844.785,210.452 C842.995,210.452 841.538,208.995 841.538,207.205 C841.538,205.414 842.995,203.958 844.785,203.958 L844.785,205.317 C843.743,205.317 842.897,206.163 842.897,207.205 C842.897,208.247 843.743,209.093 844.785,209.093 C844.98,209.093 845.157,209.067 845.319,209.018 C850.294,207.7 853.749,203.208 853.749,198.087 C853.749,194.999 852.524,192.116 850.303,189.97 C849.487,189.191 848.408,188.76 847.275,188.76 C844.849,188.76 842.876,190.735 842.876,193.162 C842.876,195.589 844.85,197.564 847.275,197.564 L847.275,198.923 C844.1,198.923 841.517,196.338 841.517,193.162 C841.517,189.985 844.1,187.4 847.275,187.4 C848.761,187.4 850.171,187.965 851.247,188.99 C853.736,191.397 855.107,194.626 855.107,198.087 C855.107,203.824 851.238,208.856 845.696,210.323 C845.433,210.405 845.117,210.452 844.785,210.452 Z M850.016,200.412 L848.743,199.94 L848.785,199.816 C849.166,198.632 849.062,197.362 848.488,196.247 C847.915,195.132 846.944,194.309 845.753,193.927 L846.169,192.634 C847.705,193.126 848.958,194.189 849.696,195.626 C850.435,197.065 850.572,198.703 850.076,200.239 L850.016,200.412 Z" id="ico-studio"></path>
        </g>
    </g>
</svg>