<?xml version="1.0" encoding="UTF-8"?>
<svg width="46px" height="51px" viewBox="0 0 46 51" version="1.1" xmlns="http://www.w3.org/2000/svg" xmlns:xlink="http://www.w3.org/1999/xlink">
    <title>ico-koncerty</title>
    <g id="Page-1" stroke="none" stroke-width="1" fill="none" fill-rule="evenodd">
        <g id="DKO_podklady_loga_piktogramy" transform="translate(-223.000000, -86.000000)" fill="#000000" fill-rule="nonzero">
            <g id="ico-koncerty" transform="translate(223.000000, 86.000000)">
                <path d="M14.873,8.081 C16.392,8.081 17.625,9.317 17.625,10.831 C17.625,12.351 16.391,13.583 14.873,13.583 C13.357,13.583 12.123,12.35 12.123,10.831 C12.123,9.317 13.357,8.081 14.873,8.081 M14.873,14.87 C17.099,14.87 18.91,13.06 18.91,10.832 C18.91,8.607 17.099,6.794 14.873,6.794 C12.646,6.794 10.8349996,8.607 10.8349996,10.832 C10.834,13.06 12.646,14.87 14.873,14.87" id="Shape"></path>
                <path d="M8.892,32.649 C7.121,32.818 5.595,31.534 5.43,29.796 C5.263,28.055 6.543,26.503 8.283,26.335 C8.388,26.324 8.492,26.32 8.595,26.32 C10.232,26.32 11.589,27.554 11.747,29.186 C11.913,30.929 10.631,32.484 8.892,32.649 M8.153,25.002 C5.679,25.241 3.858,27.447 4.096,29.922 C4.319,32.25 6.248,34.002 8.581,34.002 C8.727,34.002 8.873,33.996 9.02,33.982 C11.496,33.742 13.315,31.533 13.078,29.058 C12.84,26.589 10.667,24.754 8.153,25.002" id="Shape"></path>
                <path d="M43.552,27.314 C43.268,27.663 42.865,27.877 42.416,27.918 C41.483,28.011 40.667,27.328 40.58,26.408 C40.49,25.483 41.17,24.658 42.092,24.571 C42.148,24.565 42.202,24.563 42.257,24.563 C43.126,24.563 43.847,25.216 43.93,26.084 C43.974,26.53 43.838,26.968 43.552,27.314 M16.296,33.528 C15.735,33.582 15.177,33.524 14.59,33.368 L14.159,33.251 L13.886,33.603 C12.736,35.082 11.084,35.996 9.231,36.177 C5.481,36.537 2.258,33.813 1.903,30.136 C1.731,28.354 2.264,26.609 3.405,25.224 C4.547,23.843 6.157,22.984 7.942,22.814 C8.161,22.792 8.378,22.782 8.592,22.782 C10.206,22.782 11.773,23.372 13.002,24.446 L13.338,24.74 L13.74,24.543 C14.283,24.273 14.837,24.11 15.384,24.058 C18.036,23.801 20.323,25.733 20.575,28.336 C20.828,30.948 18.909,33.275 16.296,33.528 M41.964,23.239 C40.537,23.377 39.438,24.495 39.26,25.86 L33.354,26.43 C29.336,21.506 23.445,18.644 17.066,18.559 L17.045,18.559 L17.045,18.556 C10.911,18.556 5.925,13.57 5.925,7.438 C5.925,5.083 6.651,2.836 8.022,0.936 L6.98,0.183 C5.448,2.303 4.637,4.816 4.637,7.438 C4.637,14.188 10.058,19.693 16.774,19.835 L16.774,19.842 C16.866,19.842 16.956,19.842 17.047,19.846 C22.752,19.918 28.039,22.361 31.793,26.58 L21.807,27.544 C21.186,24.552 18.426,22.415 15.255,22.728 C14.683,22.781 14.11,22.927 13.547,23.159 C11.927,21.89 9.865,21.279 7.814,21.478 C5.673,21.684 3.741,22.712 2.373,24.373 C1.005,26.033 0.367,28.126 0.572,30.267 C0.952,34.196 4.057,37.207 7.925,37.516 L7.925,50.369 L9.213,50.369 L9.213,37.516 C9.263,37.511 9.312,37.515 9.36,37.51 C11.439,37.307 13.307,36.339 14.669,34.763 C15.266,34.883 15.842,34.918 16.426,34.864 C16.7,34.836 16.967,34.782 17.228,34.724 C20.163,38.481 22.038,44.092 22.038,50.369 L23.326,50.369 C23.326,43.997 21.457,38.261 18.488,34.279 C20.527,33.291 21.904,31.218 21.936,28.88 L39.393,27.196 C39.79,28.41 40.918,29.269 42.251,29.269 C42.348,29.269 42.448,29.264 42.544,29.255 C43.348,29.176 44.073,28.792 44.586,28.169 C45.099,27.547 45.338,26.761 45.263,25.957 C45.1,24.302 43.672,23.072 41.964,23.239" id="Shape"></path>
            </g>
        </g>
    </g>
</svg>