<?xml version="1.0" encoding="UTF-8"?>
<svg width="37px" height="37px" viewBox="0 0 37 37" version="1.1" xmlns="http://www.w3.org/2000/svg" xmlns:xlink="http://www.w3.org/1999/xlink">
    <title>ico-divadlo</title>
    <g id="Page-1" stroke="none" stroke-width="1" fill="none" fill-rule="evenodd">
        <g id="DKO_podklady_loga_piktogramy" transform="translate(-11.000000, -100.000000)" fill="#000000" fill-rule="nonzero">
            <g id="ico-divadlo" transform="translate(11.000000, 100.000000)">
                <path d="M34.608,15.408 C34.608,21.155 29.932,25.837 24.185,25.837 C24.096,25.837 24.012,25.823 23.924,25.819 C23.972,25.39 24,24.955 24,24.513 L24,18.64 L30.184,18.64 L30.184,17.143 L24,17.143 L24,9.689 L13.757,9.689 L13.757,2.084 L34.608,2.084 L34.608,15.408 Z M22.503,24.513 C22.503,24.907 22.475,25.294 22.432,25.677 C17.515,24.839 13.757,20.56 13.757,15.408 L13.757,11.19 L22.503,11.19 L22.503,24.513 Z M12.075,34.937 C6.325,34.937 1.65,30.265 1.65,24.514 L1.65,11.19 L12.26,11.19 L12.26,15.408 C12.26,19.409 14.248,22.951 17.284,25.118 C16.982,27.726 14.761,29.76 12.075,29.76 C9.181,29.76 6.83,27.403 6.83,24.513 L5.33,24.513 C5.33,28.231 8.355,31.258 12.076,31.258 C15.297,31.258 17.993,28.988 18.66,25.967 C19.736,26.53 20.913,26.93 22.153,27.146 C20.982,31.623 16.914,34.937 12.075,34.937 M12.26,0.583 L12.26,9.689 L0.149,9.689 L0.149,24.513 C0.149,31.088 5.501,36.437 12.075,36.437 C17.687,36.437 22.395,32.535 23.658,27.307 C23.832,27.314 24.008,27.336 24.186,27.336 C30.76,27.336 36.108,21.983 36.108,15.408 L36.108,0.583 L12.26,0.583 L12.26,0.583 Z" id="Shape"></path>
                <rect id="Rectangle" transform="translate(29.141509, 7.329732) rotate(28.887101) translate(-29.141509, -7.329732) " x="26.134417" y="6.57820899" width="6.01418333" height="1.50304582"></rect>
                <rect id="Rectangle" transform="translate(19.210825, 7.315078) rotate(61.202511) translate(-19.210825, -7.315078) " x="18.4598488" y="4.30817315" width="1.50195237" height="6.01380929"></rect>
                <rect id="Rectangle" x="15.631" y="17.144" width="5.269" height="1.496"></rect>
                <rect id="Rectangle" x="3.276" y="17.144" width="5.27" height="1.496"></rect>
            </g>
        </g>
    </g>
</svg>