<?xml version="1.0" encoding="UTF-8"?>
<svg width="30px" height="31px" viewBox="0 0 30 31" version="1.1" xmlns="http://www.w3.org/2000/svg" xmlns:xlink="http://www.w3.org/1999/xlink">
    <title>ico-o-nas</title>
    <g id="Page-1" stroke="none" stroke-width="1" fill="none" fill-rule="evenodd">
        <g id="DKO_podklady_loga_piktogramy" transform="translate(-1021.000000, -12.000000)" fill="#000000" fill-rule="nonzero">
            <g id="ico-o-nas" transform="translate(1021.000000, 12.000000)">
                <path d="M15.103,29.192 C7.688,29.192 1.657,23.157 1.657,15.743 C1.657,8.329 7.688,2.296 15.103,2.296 C22.515,2.296 28.545,8.329 28.545,15.743 C28.545,23.157 22.515,29.192 15.103,29.192 M15.103,0.865 C6.899,0.865 0.224,7.539 0.224,15.742 C0.224,23.949 6.899,30.622 15.103,30.622 C23.304,30.622 29.978,23.948 29.978,15.742 C29.978,7.54 23.304,0.865 15.103,0.865" id="Shape"></path>
                <path d="M11.021,16.49 C11.474,12.959 12.837,9.591 15.011,6.758 C17.035,9.443 18.35,12.858 18.81,16.49 L11.021,16.49 Z M15.014,4.498 L14.467,5.152 C11.204,9.035 9.407,13.971 9.407,19.053 C9.407,20.147 9.473,22.263 9.896,24.15 L11.296,23.834 C11.006,22.554 10.837,20.812 10.837,19.053 C10.837,18.676 10.862,18.298 10.885,17.921 L18.95,17.921 C18.977,18.39 19.002,18.861 19.002,19.335 C19.002,21.093 18.837,22.836 18.545,24.115 L19.943,24.431 C20.371,22.544 20.434,20.427 20.434,19.335 C20.434,14.011 18.658,8.843 15.563,5.153 L15.014,4.498 Z" id="Shape"></path>
            </g>
        </g>
    </g>
</svg>