<?xml version="1.0" encoding="UTF-8"?>
<svg width="56px" height="43px" viewBox="0 0 56 43" version="1.1" xmlns="http://www.w3.org/2000/svg" xmlns:xlink="http://www.w3.org/1999/xlink">
    <title>ico-kino</title>
    <g id="Page-1" stroke="none" stroke-width="1" fill="none" fill-rule="evenodd">
        <g id="DKO_podklady_loga_piktogramy" transform="translate(-215.000000, -8.000000)" fill="#000000" fill-rule="nonzero">
            <path d="M266.76,50.165 C265.723,50.165 264.718,49.609 264.197,48.635 C263.829,47.953 263.752,47.167 263.976,46.426 C264.2,45.682 264.7,45.072 265.385,44.706 C266.794,43.95 268.556,44.483 269.312,45.893 C269.679,46.574 269.757,47.359 269.534,48.101 C269.311,48.843 268.81,49.455 268.128,49.821 C267.691,50.055 267.222,50.165 266.76,50.165 Z M266.75,46.044 C266.557,46.044 266.361,46.09 266.178,46.188 C265.89,46.342 265.68,46.599 265.587,46.911 C265.492,47.223 265.525,47.552 265.679,47.84 C265.996,48.431 266.739,48.654 267.331,48.339 C267.616,48.186 267.827,47.928 267.921,47.615 C268.014,47.305 267.982,46.976 267.828,46.689 C267.608,46.279 267.186,46.044 266.75,46.044 Z M253.058,50.165 C252.021,50.165 251.016,49.609 250.493,48.636 L250.492,48.635 C249.738,47.225 250.271,45.462 251.68,44.706 C253.092,43.952 254.853,44.483 255.611,45.892 C256.368,47.302 255.835,49.065 254.425,49.822 C253.99,50.055 253.521,50.165 253.058,50.165 Z M251.976,47.839 C252.295,48.433 253.035,48.656 253.63,48.338 C254.221,48.021 254.446,47.279 254.128,46.688 C253.81,46.095 253.068,45.87 252.476,46.189 C251.884,46.506 251.66,47.247 251.976,47.839 L251.976,47.839 Z M218.932,50.165 C217.895,50.165 216.89,49.609 216.368,48.635 C215.611,47.224 216.143,45.462 217.555,44.706 C218.964,43.952 220.727,44.483 221.484,45.892 C221.852,46.574 221.932,47.359 221.706,48.101 C221.483,48.843 220.983,49.455 220.3,49.821 C219.864,50.055 219.395,50.165 218.932,50.165 Z M218.922,46.044 C218.728,46.044 218.532,46.09 218.349,46.189 C217.758,46.506 217.534,47.247 217.852,47.84 C218.17,48.433 218.913,48.656 219.505,48.339 C219.791,48.186 220.001,47.928 220.095,47.615 C220.189,47.304 220.156,46.976 220.002,46.69 C219.781,46.279 219.357,46.044 218.922,46.044 Z M259.909,50.165 C258.872,50.165 257.867,49.609 257.346,48.635 L257.346,48.635 L257.346,48.635 L257.346,48.635 C256.979,47.953 256.901,47.167 257.124,46.426 C257.348,45.682 257.848,45.072 258.532,44.706 C259.943,43.951 261.705,44.483 262.461,45.892 C263.217,47.302 262.686,49.065 261.275,49.822 C260.839,50.055 260.372,50.165 259.909,50.165 Z M259.899,46.044 C259.705,46.044 259.508,46.09 259.327,46.188 C259.039,46.342 258.829,46.599 258.736,46.911 C258.642,47.223 258.675,47.552 258.828,47.84 L258.828,47.84 C259.146,48.433 259.889,48.656 260.48,48.339 C261.072,48.022 261.296,47.28 260.978,46.688 C260.758,46.279 260.335,46.044 259.899,46.044 Z M246.22,50.165 C245.182,50.165 244.178,49.609 243.655,48.635 C243.289,47.953 243.211,47.167 243.436,46.426 C243.66,45.682 244.159,45.072 244.843,44.706 C246.251,43.95 248.015,44.483 248.774,45.892 C249.529,47.303 248.997,49.065 247.588,49.822 C247.151,50.055 246.683,50.165 246.22,50.165 Z M246.211,46.044 C246.016,46.044 245.82,46.09 245.638,46.188 C245.35,46.342 245.141,46.599 245.046,46.911 C244.951,47.223 244.984,47.552 245.138,47.84 C245.456,48.433 246.199,48.656 246.791,48.339 C247.382,48.022 247.607,47.28 247.289,46.687 C247.069,46.277 246.647,46.044 246.211,46.044 Z M239.421,50.165 C238.382,50.165 237.379,49.609 236.856,48.635 C236.1,47.224 236.631,45.462 238.043,44.706 C239.453,43.952 241.216,44.483 241.973,45.892 C242.729,47.301 242.199,49.064 240.788,49.822 C240.352,50.055 239.883,50.165 239.421,50.165 Z M239.411,46.044 C239.218,46.044 239.021,46.09 238.837,46.189 C238.245,46.506 238.023,47.247 238.339,47.84 C238.656,48.431 239.398,48.656 239.992,48.339 C240.584,48.022 240.807,47.28 240.489,46.689 C240.269,46.279 239.847,46.044 239.411,46.044 Z M225.732,50.165 C224.693,50.165 223.69,49.609 223.166,48.636 L223.166,48.635 C222.799,47.953 222.721,47.167 222.945,46.426 C223.17,45.682 223.669,45.072 224.353,44.706 C225.763,43.95 227.526,44.481 228.282,45.893 C229.039,47.301 228.507,49.064 227.098,49.822 C226.664,50.055 226.194,50.165 225.732,50.165 Z M224.65,47.84 C224.969,48.433 225.711,48.656 226.304,48.339 C226.895,48.022 227.118,47.28 226.801,46.689 C226.482,46.096 225.74,45.87 225.15,46.19 C224.863,46.343 224.653,46.6 224.559,46.912 C224.463,47.222 224.497,47.552 224.65,47.84 Z M232.57,50.164 C231.532,50.164 230.528,49.609 230.004,48.636 L230.004,48.635 C229.251,47.225 229.783,45.462 231.192,44.706 C232.602,43.952 234.366,44.483 235.122,45.892 C235.488,46.574 235.568,47.359 235.344,48.101 C235.12,48.843 234.62,49.455 233.938,49.821 C233.501,50.055 233.032,50.164 232.57,50.164 Z M231.488,47.839 C231.805,48.43 232.549,48.656 233.141,48.338 C233.427,48.185 233.637,47.927 233.731,47.614 C233.825,47.304 233.793,46.975 233.638,46.688 C233.319,46.095 232.575,45.869 231.985,46.189 C231.396,46.506 231.172,47.247 231.488,47.839 L231.488,47.839 Z M249.565,43.56 C248.528,43.56 247.524,43.004 247.001,42.03 L247.001,42.029 C246.246,40.618 246.778,38.854 248.189,38.099 C249.599,37.344 251.361,37.876 252.119,39.284 C252.486,39.967 252.564,40.752 252.34,41.496 C252.115,42.237 251.616,42.849 250.933,43.216 C250.497,43.448 250.027,43.56 249.565,43.56 Z M248.485,41.234 C248.803,41.826 249.545,42.05 250.136,41.733 C250.423,41.58 250.633,41.321 250.727,41.009 C250.821,40.697 250.789,40.367 250.636,40.083 C250.316,39.491 249.576,39.266 248.983,39.583 C248.39,39.9 248.167,40.64 248.485,41.234 Z M236.015,43.56 C234.978,43.56 233.974,43.004 233.452,42.03 C233.085,41.345 233.006,40.56 233.229,39.817 C233.454,39.076 233.955,38.464 234.637,38.099 C236.048,37.343 237.811,37.876 238.567,39.285 C238.934,39.967 239.013,40.751 238.789,41.495 C238.564,42.237 238.066,42.848 237.382,43.216 C236.947,43.448 236.477,43.56 236.015,43.56 Z M236.007,39.438 C235.812,39.438 235.615,39.485 235.431,39.582 C235.144,39.736 234.935,39.992 234.841,40.304 C234.747,40.615 234.78,40.947 234.935,41.233 L234.935,41.233 C235.252,41.825 235.993,42.049 236.586,41.732 C236.872,41.579 237.082,41.321 237.177,41.008 C237.271,40.697 237.237,40.367 237.082,40.082 C236.864,39.672 236.441,39.438 236.007,39.438 Z M263.204,43.56 C262.166,43.56 261.163,43.004 260.639,42.03 L260.639,42.029 C259.883,40.617 260.416,38.853 261.826,38.098 C262.509,37.732 263.294,37.654 264.037,37.878 C264.779,38.104 265.39,38.602 265.756,39.286 C266.512,40.693 265.981,42.455 264.571,43.215 C264.135,43.448 263.666,43.56 263.204,43.56 Z M262.122,41.234 C262.44,41.826 263.181,42.05 263.775,41.733 C264.367,41.415 264.59,40.673 264.272,40.083 C264.119,39.794 263.863,39.584 263.55,39.491 C263.238,39.398 262.909,39.431 262.62,39.583 C262.028,39.9 261.805,40.64 262.122,41.234 Z M222.377,43.56 C221.339,43.56 220.336,43.004 219.812,42.03 L219.812,42.028 C219.057,40.617 219.591,38.854 221.001,38.099 C222.41,37.343 224.173,37.876 224.93,39.284 C225.297,39.967 225.376,40.752 225.151,41.495 C224.927,42.237 224.427,42.849 223.745,43.216 C223.309,43.448 222.839,43.56 222.377,43.56 Z M221.295,41.234 C221.613,41.826 222.356,42.05 222.948,41.733 C223.234,41.58 223.445,41.321 223.539,41.009 C223.633,40.697 223.601,40.367 223.447,40.083 C223.128,39.49 222.386,39.266 221.795,39.583 C221.203,39.9 220.979,40.64 221.295,41.234 Z M256.365,43.56 C255.327,43.56 254.322,43.004 253.801,42.029 L253.801,42.029 C253.046,40.618 253.579,38.855 254.989,38.1 C256.397,37.345 258.16,37.877 258.919,39.285 C259.675,40.694 259.144,42.457 257.735,43.217 C257.297,43.448 256.827,43.56 256.365,43.56 Z M255.284,41.235 C255.602,41.825 256.341,42.049 256.938,41.732 C257.528,41.414 257.752,40.673 257.435,40.082 C257.116,39.489 256.375,39.266 255.782,39.582 C255.19,39.9 254.966,40.641 255.284,41.235 Z M242.865,43.56 C241.829,43.56 240.824,43.004 240.301,42.032 L240.3,42.029 C239.545,40.617 240.078,38.854 241.489,38.099 C242.901,37.345 244.661,37.877 245.418,39.286 C246.175,40.694 245.644,42.457 244.233,43.217 C243.797,43.448 243.329,43.56 242.865,43.56 Z M241.784,41.233 C242.103,41.824 242.844,42.049 243.436,41.732 C244.028,41.412 244.253,40.672 243.936,40.082 C243.617,39.487 242.875,39.266 242.284,39.582 C241.691,39.9 241.467,40.64 241.784,41.233 Z M229.176,43.56 C228.139,43.56 227.135,43.004 226.612,42.031 L226.612,42.029 C225.858,40.617 226.391,38.854 227.8,38.1 C229.209,37.345 230.971,37.877 231.731,39.284 C232.488,40.695 231.956,42.457 230.545,43.217 C230.108,43.448 229.638,43.56 229.176,43.56 Z M228.095,41.234 C228.414,41.826 229.158,42.048 229.747,41.732 C230.34,41.413 230.564,40.673 230.248,40.082 C229.928,39.49 229.186,39.266 228.593,39.582 C228.002,39.899 227.779,40.64 228.095,41.234 Z M270.306,35.3 L268.623,35.3 L268.623,10.057 L240.318,10.057 C241.053,11.533 241.337,13.192 241.123,14.864 C240.839,17.094 239.702,19.08 237.924,20.456 C234.253,23.296 228.954,22.62 226.112,18.948 L227.443,17.917 C229.717,20.855 233.957,21.396 236.896,19.124 C238.318,18.024 239.227,16.435 239.455,14.65 C239.663,13.022 239.281,11.408 238.375,10.057 L216.196,10.057 L216.196,8.374 L270.305,8.374 L270.305,35.3 L270.306,35.3 Z M240.518,35.3 L238.835,35.3 L238.835,23.344 C234.954,23.997 231.922,29.111 231.922,35.3 L230.239,35.3 C230.239,27.741 234.472,21.592 239.677,21.592 L240.518,21.592 L240.518,35.3 Z M217.038,35.3 L215.355,35.3 L215.355,17.47 L217.038,17.47 L217.038,35.3 Z M234.135,18.6 C233.852,18.6 233.568,18.558 233.289,18.474 C232.546,18.249 231.935,17.748 231.566,17.064 L231.566,17.063 C231.199,16.379 231.121,15.592 231.346,14.849 C231.569,14.104 232.07,13.492 232.754,13.124 C234.169,12.369 235.934,12.901 236.693,14.31 C237.449,15.725 236.917,17.493 235.505,18.252 C235.077,18.483 234.608,18.6 234.135,18.6 Z M233.049,16.267 C233.205,16.556 233.463,16.769 233.778,16.863 C234.089,16.957 234.421,16.925 234.709,16.77 C235.304,16.449 235.53,15.704 235.21,15.106 C234.892,14.514 234.144,14.291 233.549,14.608 C233.261,14.763 233.051,15.02 232.956,15.334 C232.861,15.648 232.895,15.979 233.049,16.267 Z" id="ico-kino"></path>
        </g>
    </g>
</svg>