<?xml version="1.0" encoding="UTF-8"?>
<svg width="213px" height="148px" viewBox="0 0 213 148" version="1.1" xmlns="http://www.w3.org/2000/svg" xmlns:xlink="http://www.w3.org/1999/xlink">
    <title>Group</title>
    <g id="Page-1" stroke="none" stroke-width="1" fill="none" fill-rule="evenodd">
        <g id="DKO_podklady_loga_piktogramy" transform="translate(0.000000, -448.000000)" fill="#000000" fill-rule="nonzero">
            <g id="Group" transform="translate(0.000000, 448.000000)">
                <g transform="translate(0.000000, 81.000000)">
                    <path d="M0.986,4.404 L6.023,4.404 C10.842,4.404 14.213,5.912 14.213,11.264 C14.213,16.441 10.742,18.246 6.023,18.246 L0.986,18.246 L0.986,4.404 Z M4.674,15.511 L6.102,15.511 C8.858,15.511 10.405,14.082 10.405,11.325 C10.405,8.569 8.799,7.141 6.102,7.141 L4.674,7.141 L4.674,15.511 Z" id="Shape"></path>
                    <path d="M38.669,12.991 C38.669,16.779 36.21,18.483 32.601,18.483 C28.991,18.483 26.532,16.779 26.532,12.991 L26.532,4.404 L30.22,4.404 L30.22,12.377 C30.22,14.2 30.716,15.748 32.6,15.748 C34.483,15.748 34.979,14.2 34.979,12.377 L34.979,4.404 L38.667,4.404 L38.667,12.991 L38.669,12.991 Z M32.601,0.559 C33.651,0.559 34.484,1.411 34.484,2.442 C34.484,3.473 33.651,4.328 32.601,4.328 C31.569,4.328 30.716,3.474 30.716,2.442 C30.716,1.41 31.569,0.559 32.601,0.559 Z M32.601,3.255 C33.057,3.255 33.413,2.898 33.413,2.442 C33.413,1.986 33.057,1.63 32.601,1.63 C32.144,1.63 31.787,1.986 31.787,2.442 C31.787,2.898 32.145,3.255 32.601,3.255 Z" id="Shape"></path>
                    <polygon id="Path" points="51.265 4.404 57.075 4.404 60.01 13.605 60.051 13.605 63.124 4.404 68.717 4.404 68.717 18.247 65.107 18.247 65.167 7.617 65.127 7.617 61.597 18.247 58.206 18.247 54.835 7.617 54.795 7.617 54.875 18.247 51.266 18.247 51.266 4.404"></polygon>
                    <polygon id="Path" points="0.986 28.206 4.674 28.206 4.674 33.856 4.714 33.856 8.879 28.206 13.32 28.206 8.204 34.649 13.717 42.046 9.017 42.046 4.714 35.761 4.674 35.761 4.674 42.046 0.986 42.046 0.986 28.206"></polygon>
                    <path d="M37.558,36.792 C37.558,40.579 35.099,42.285 31.49,42.285 C27.882,42.285 25.422,40.579 25.422,36.792 L25.422,28.206 L29.111,28.206 L29.111,36.177 C29.111,38.003 29.607,39.549 31.49,39.549 C33.375,39.549 33.87,38.003 33.87,36.177 L33.87,28.206 L37.558,28.206 L37.558,36.792 L37.558,36.792 Z" id="Path"></path>
                    <polygon id="Path" points="50.254 28.206 53.942 28.206 53.942 39.31 59.654 39.31 59.654 42.046 50.255 42.046 50.255 28.206"></polygon>
                    <polygon id="Path" points="73.975 30.943 70.563 30.943 70.563 28.206 81.074 28.206 81.074 30.943 77.663 30.943 77.663 42.047 73.975 42.047"></polygon>
                    <path d="M104.875,36.792 C104.875,40.579 102.417,42.285 98.807,42.285 C95.198,42.285 92.739,40.579 92.739,36.792 L92.739,28.206 L96.427,28.206 L96.427,36.177 C96.427,38.003 96.923,39.549 98.806,39.549 C100.691,39.549 101.186,38.003 101.186,36.177 L101.186,28.206 L104.874,28.206 L104.874,36.792 L104.875,36.792 Z" id="Path"></path>
                    <path d="M117.472,28.206 L124.055,28.206 C126.514,28.206 128.517,29.316 128.517,31.696 C128.517,33.541 127.645,34.768 125.859,35.186 L125.859,35.225 C127.049,35.543 127.129,36.593 127.822,38.281 L129.171,42.047 L125.323,42.047 L124.53,39.549 C123.776,37.17 123.301,36.575 121.933,36.575 L121.159,36.575 L121.159,42.047 L117.471,42.047 L117.471,28.206 L117.472,28.206 Z M121.159,33.956 L122.131,33.956 C123.32,33.956 124.828,33.917 124.828,32.352 C124.828,31.062 123.539,30.826 122.131,30.826 L121.159,30.826 L121.159,33.956 Z" id="Shape"></path>
                    <polygon id="Path" points="145.158 36.832 140.042 28.206 144.286 28.206 147.003 33.759 149.68 28.206 153.923 28.206 148.847 36.832 148.847 42.047 145.158 42.047"></polygon>
                    <path d="M7.411,51.768 C11.972,51.768 14.351,54.486 14.351,58.928 C14.351,63.33 11.932,66.086 7.411,66.086 C2.89,66.086 0.47,63.33 0.47,58.928 C0.47,54.485 2.849,51.768 7.411,51.768 Z M7.411,63.351 C9.651,63.351 10.544,61.208 10.544,58.928 C10.544,56.53 9.651,54.506 7.411,54.506 C5.17,54.506 4.278,56.529 4.278,58.928 C4.278,61.208 5.17,63.351 7.411,63.351 Z" id="Shape"></path>
                    <path d="M26.771,62.438 C27.723,62.955 29.051,63.351 30.579,63.351 C31.749,63.351 32.859,63.114 32.859,62.002 C32.859,59.423 26.315,61.051 26.315,56.013 C26.315,52.681 29.567,51.768 32.344,51.768 C33.672,51.768 34.981,51.968 35.913,52.285 L35.675,55.141 C34.723,54.703 33.652,54.506 32.602,54.506 C31.67,54.506 30.123,54.585 30.123,55.796 C30.123,58.035 36.667,56.529 36.667,61.526 C36.667,65.115 33.653,66.086 30.58,66.086 C29.29,66.086 27.684,65.889 26.455,65.491 L26.771,62.438 Z" id="Path"></path>
                    <polygon id="Path" points="51.542 54.744 48.131 54.744 48.131 52.007 58.641 52.007 58.641 54.744 55.23 54.744 55.23 65.849 51.542 65.849"></polygon>
                    <path d="M70.406,52.007 L76.989,52.007 C79.448,52.007 81.451,53.118 81.451,55.497 C81.451,57.341 80.578,58.571 78.794,58.988 L78.794,59.026 C79.983,59.344 80.063,60.394 80.757,62.082 L82.107,65.85 L78.259,65.85 L77.466,63.351 C76.713,60.97 76.237,60.375 74.868,60.375 L74.095,60.375 L74.095,65.85 L70.407,65.85 L70.407,52.007 L70.406,52.007 Z M74.094,57.757 L75.066,57.757 C76.256,57.757 77.763,57.72 77.763,56.152 C77.763,54.863 76.474,54.626 75.066,54.626 L74.094,54.626 L74.094,57.757 Z" id="Shape"></path>
                    <path d="M100.472,51.768 C105.033,51.768 107.413,54.486 107.413,58.928 C107.413,63.33 104.994,66.086 100.472,66.086 C95.951,66.086 93.532,63.33 93.532,58.928 C93.532,54.485 95.911,51.768 100.472,51.768 Z M100.472,63.351 C102.713,63.351 103.605,61.208 103.605,58.928 C103.605,56.53 102.713,54.506 100.472,54.506 C98.231,54.506 97.339,56.529 97.339,58.928 C97.339,61.208 98.231,63.351 100.472,63.351 Z" id="Shape"></path>
                    <polygon id="Path" points="118.702 52.007 122.628 52.007 125.702 62.874 125.742 62.874 128.836 52.007 132.623 52.007 127.904 65.85 123.343 65.85"></polygon>
                </g>
                <g>
                    <path d="M170.872,41.278 L171.685,40.237 L172.96,40.579 C173.541,40.734 174.053,40.786 174.563,40.733 C177.028,40.496 178.836,38.305 178.599,35.847 C178.376,33.537 176.476,31.795 174.178,31.795 C174.025,31.795 173.87,31.804 173.717,31.819 C173.202,31.865 172.682,32.022 172.163,32.278 L170.976,32.868 L169.976,31.993 C168.73,30.902 167.141,30.302 165.503,30.302 C165.276,30.302 165.054,30.313 164.849,30.334 C163.035,30.506 161.401,31.376 160.242,32.779 C159.086,34.183 158.545,35.955 158.72,37.763 C159.057,41.275 161.954,43.922 165.457,43.922 C165.686,43.922 165.918,43.909 166.148,43.887 C168.031,43.706 169.708,42.778 170.872,41.278 Z M165.868,40.937 C165.74,40.948 165.616,40.954 165.496,40.954 C163.506,40.954 161.864,39.46 161.674,37.48 C161.576,36.457 161.881,35.459 162.534,34.667 C163.186,33.876 164.108,33.387 165.13,33.286 C167.282,33.072 169.121,34.638 169.325,36.742 C169.527,38.851 167.977,40.731 165.868,40.937 Z" id="Shape"></path>
                    <path d="M163.522,60.653 L163.522,47.715 C158.859,46.865 155.236,43.034 154.767,38.144 C154.49,35.277 155.347,32.476 157.178,30.255 C159.011,28.031 161.597,26.653 164.464,26.377 C167.023,26.135 169.512,26.79 171.597,28.228 C172.17,28.042 172.75,27.919 173.33,27.864 C177.261,27.496 180.877,29.91 182.124,33.513 L193.615,32.403 C189.905,29.146 185.306,27.22 180.335,26.868 C180.201,26.849 180.034,26.836 179.827,26.832 C179.731,26.83 179.643,26.827 179.553,26.825 C179.358,26.82 179.163,26.808 178.967,26.805 C178.918,26.804 178.872,26.804 178.829,26.802 C178.239,26.779 177.794,26.747 177.466,26.719 L177.466,26.718 C169.396,25.947 163.01,19.053 163.01,10.835 C163.01,7.695 163.91,4.688 165.619,2.087 C151.805,5.792 143.995,16.195 143.995,32.444 C143.995,48.115 151.017,58.139 163.521,62.225 L163.521,60.653 L163.522,60.653 Z" id="Path"></path>
                    <path d="M180.342,62.924 L180.334,61.744 C180.291,55.205 178.461,49.023 175.291,44.648 C175.176,44.665 175.063,44.679 174.949,44.688 C174.376,44.746 173.782,44.739 173.185,44.665 C171.625,46.259 169.625,47.318 167.433,47.718 L167.433,60.654 L167.433,62.925 L167.433,63.271 C170.709,63.971 174.296,64.324 178.171,64.324 C178.905,64.324 179.629,64.31 180.343,64.284 L180.343,62.924 L180.342,62.924 Z" id="Path"></path>
                    <path d="M31.536,11.368 C31.963,11.578 32.406,11.753 32.865,11.9 C32.873,11.903 32.882,11.905 32.891,11.909 C32.919,11.917 32.947,11.928 32.974,11.936 C33.042,11.957 33.118,11.979 33.211,12.004 C33.261,12.019 33.308,12.028 33.357,12.042 C33.416,12.058 33.476,12.072 33.537,12.088 C33.668,12.119 33.797,12.15 33.926,12.176 C33.944,12.18 33.962,12.182 33.979,12.188 C35.97,12.59 37.461,12.346 37.461,12.346 C37.08,12.218 36.669,12.018 36.277,11.703 C35.474,11.06 35.055,10.172 35.098,9.2 C35.141,8.3 35.582,7.489 36.339,6.916 C37.12,6.323 38.088,6.037 39.141,6.097 C39.89,6.137 40.568,6.348 41.153,6.725 C41.42,6.898 41.659,7.094 41.863,7.313 C41.885,7.335 41.907,7.361 41.929,7.386 C42.047,7.353 42.164,7.328 42.282,7.305 L42.777,7.209 C42.846,7.197 42.917,7.184 42.987,7.167 C43.029,6.83 43.024,6.501 42.967,6.186 C42.867,5.619 42.611,5.126 42.154,4.634 C41.63,4.072 40.965,3.617 40.123,3.252 C38.756,2.654 37.342,2.353 35.92,2.353 C35.399,2.353 34.871,2.393 34.348,2.471 C33.234,2.638 32.286,2.95 31.449,3.434 C29.753,4.413 28.924,5.709 28.839,7.511 C28.797,8.408 29.029,9.15 29.57,9.849 C30.041,10.453 30.683,10.951 31.536,11.368 Z" id="Path"></path>
                    <path d="M27.463,62.051 L27.463,63.108 L27.463,63.239 L27.463,63.261 L34.609,63.261 C36.477,63.261 38.295,63.179 40.056,63.005 L40.056,39.47 C33.003,41.018 27.463,50.75 27.463,62.051 Z" id="Path"></path>
                    <path d="M178.169,0.565 C175.857,0.565 173.648,0.696 171.545,0.953 C170.948,1.531 170.391,2.151 169.889,2.816 L169.889,2.815 L169.192,3.78 C167.703,5.843 166.916,8.281 166.916,10.835 C166.916,17.175 171.836,22.385 178.058,22.856 C178.156,22.869 178.276,22.877 178.417,22.88 C179.413,22.91 179.917,22.927 180.171,22.936 C187.286,23.334 193.915,26.561 198.644,31.918 L199.266,31.857 L199.265,31.857 L201.087,31.681 C201.684,29.929 203.245,28.658 205.148,28.473 C205.309,28.458 205.451,28.453 205.594,28.453 C208.079,28.453 210.136,30.312 210.377,32.78 C210.497,34.057 210.117,35.301 209.305,36.286 C208.49,37.274 207.34,37.884 206.069,38.007 C205.911,38.022 205.757,38.028 205.606,38.028 C203.871,38.028 202.309,37.097 201.47,35.635 L182.504,37.464 C182.173,39.749 180.892,41.831 179.004,43.17 C182.302,48.138 184.197,54.816 184.24,61.727 L184.247,62.921 L184.247,64.006 C202.115,62.092 212.607,51.399 212.607,32.442 C212.607,11.782 199.715,0.565 178.169,0.565 Z M176.945,20.088 C174.291,20.088 172.133,17.927 172.133,15.275 C172.133,12.625 174.291,10.463 176.945,10.463 C179.599,10.463 181.755,12.624 181.755,15.275 C181.754,17.927 179.599,20.088 176.945,20.088 Z" id="Shape"></path>
                    <g transform="translate(75.000000, 1.000000)">
                        <path d="M2.761,57.544 C2.761,58.73 2.821,59.916 2.937,61.073 L3.028,61.969 C3.038,62.055 3.049,62.157 3.062,62.261 L15.676,62.261 C15.702,62.07 15.717,61.937 15.717,61.937 L15.805,61.074 C15.922,59.917 15.98,58.729 15.98,57.544 C15.98,49.27 15.361,44.898 9.371,37.109 C3.38,44.897 2.761,49.27 2.761,57.544 Z M14.216,50.259 C14.216,52.927 12.047,55.094 9.38,55.094 C6.715,55.094 4.546,52.927 4.546,50.259 C4.546,47.593 6.715,45.423 9.38,45.423 C12.046,45.423 14.216,47.593 14.216,50.259 Z" id="Shape"></path>
                        <path d="M3.276,3.548 C2.955,5.527 2.776,7.902 2.776,10.295 C2.776,17.585 5.109,24.757 9.372,30.66 C13.636,24.753 15.969,17.582 15.969,10.295 C15.969,7.264 15.683,4.261 15.184,2.056 L14.953,1.029 C14.922,0.893 14.879,0.76 14.842,0.628 L3.913,0.628 C3.724,1.366 3.446,2.53 3.276,3.548 Z" id="Path"></path>
                        <path d="M6.822,33.904 C4.04,30.284 1.939,26.202 0.582,21.879 L0.582,44.304 C1.761,41.143 3.688,37.878 6.822,33.904 Z" id="Path"></path>
                        <path d="M45.353,29.501 L66.103,0.627 L39.171,0.627 L24.424,24.821 L24.248,24.821 L24.248,0.627 L18.915,0.627 C18.984,0.872 19.049,1.116 19.104,1.354 C19.838,4.703 19.951,8.382 19.951,10.295 C19.951,18.811 17.105,27.157 11.921,33.904 C19.156,43.078 19.964,48.474 19.964,57.544 C19.964,58.856 19.899,60.177 19.768,61.473 L19.69,62.262 L24.249,62.262 L24.249,36.124 L24.425,36.124 L39.79,62.262 L68.047,62.262 L45.353,29.501 Z" id="Path"></path>
                    </g>
                    <path d="M65.694,32.621 C65.694,12.626 57.723,4.785 45.49,2.45 C46.211,3.371 46.678,4.393 46.872,5.502 C47.037,6.44 47.013,7.406 46.797,8.374 C46.513,9.658 45.628,10.588 44.371,10.921 C44.204,10.963 44.037,11.001 43.878,11.034 C43.921,11.431 43.904,11.824 43.826,12.206 C45.105,15.002 45.572,18.092 45.18,21.167 C44.618,25.558 42.38,29.467 38.879,32.173 C35.95,34.442 32.455,35.64 28.775,35.64 C28.065,35.64 27.347,35.593 26.64,35.503 C22.251,34.941 18.342,32.704 15.634,29.202 L14.907,28.264 L18.042,25.841 L18.768,26.779 C20.83,29.446 23.806,31.146 27.144,31.573 C27.683,31.642 28.23,31.677 28.769,31.677 C31.569,31.677 34.227,30.765 36.456,29.04 C39.12,26.978 40.823,24.006 41.249,20.665 C41.47,18.942 41.328,17.19 40.838,15.527 C40.644,15.613 40.439,15.692 40.224,15.769 C39.565,16 38.871,16.162 38.121,16.26 C38.121,16.26 37.4,16.397 36.172,16.378 C35.951,16.373 35.734,16.365 35.519,16.354 C34.588,16.3 33.447,16.151 32.152,15.823 C31.334,15.595 30.549,15.299 29.793,14.928 C28.384,14.237 27.288,13.371 26.44,12.275 C25.322,10.835 24.797,9.169 24.883,7.329 C24.989,5.081 25.834,3.147 27.346,1.627 L0.878,1.627 L0.878,63.262 L23.5,63.262 L23.5,63.24 L23.5,63.109 L23.5,62.052 C23.5,47.298 31.815,35.293 42.036,35.293 L44.018,35.293 L44.018,62.436 C56.824,59.96 65.694,51.572 65.694,32.621 Z M29.098,18.502 C29.791,18.128 30.571,17.934 31.351,17.934 C33.116,17.934 34.729,18.898 35.563,20.453 C36.807,22.773 35.933,25.673 33.612,26.917 C32.919,27.288 32.14,27.487 31.359,27.487 C29.595,27.485 27.981,26.519 27.146,24.966 C25.902,22.646 26.777,19.746 29.098,18.502 Z M11.201,18.344 C10.515,18.084 9.932,17.595 9.567,16.95 C9.212,16.324 9.071,15.646 9.149,14.933 C9.259,13.954 9.367,12.979 9.474,12.004 L9.557,11.25 C9.564,11.193 9.572,11.135 9.581,11.072 L9.599,10.948 L9.893,8.503 L12.189,10.826 C12.422,11.062 12.657,11.298 12.89,11.533 C13.416,12.059 13.96,12.605 14.487,13.161 C15.359,14.083 15.612,15.259 15.203,16.473 C15.133,16.675 15.046,16.867 14.945,17.041 L17.198,23.532 L13.448,24.818 L11.201,18.344 Z" id="Shape"></path>
                </g>
            </g>
        </g>
    </g>
</svg>