<?xml version="1.0" encoding="UTF-8"?>
<svg width="36px" height="30px" viewBox="0 0 36 30" version="1.1" xmlns="http://www.w3.org/2000/svg" xmlns:xlink="http://www.w3.org/1999/xlink">
    <title>ico-sluzby</title>
    <g id="Page-1" stroke="none" stroke-width="1" fill="none" fill-rule="evenodd">
        <g id="DKO_podklady_loga_piktogramy" transform="translate(-430.000000, -15.000000)" fill="#000000" fill-rule="nonzero">
            <path d="M435.865,29.818 L432.676,26.566 L439.052,19.885 L443.778,18.292 L442.25,23.134 L435.865,29.818 Z M459.956,29.949 L465.664,24.235 L464.456,22.946 L459.443,27.961 L454.746,26.717 L453.689,21.828 L458.702,16.812 L457.495,15.524 L451.782,21.239 L453.061,27.155 L447.39,32.827 L441.328,26.652 L443.774,24.093 L446.49,15.491 L438.111,18.316 L430.219,26.585 L435.883,32.356 L440.107,27.932 L446.142,34.077 L437.275,42.95 L438.484,44.236 L447.379,35.338 L456.109,44.233 L457.328,42.955 L448.626,34.088 L454.272,28.443 L459.956,29.949 Z" id="ico-sluzby"></path>
        </g>
    </g>
</svg>