<?xml version="1.0" encoding="UTF-8"?>
<svg width="31px" height="62px" viewBox="0 0 31 62" version="1.1" xmlns="http://www.w3.org/2000/svg" xmlns:xlink="http://www.w3.org/1999/xlink">
    <title>ico-radnice</title>
    <g id="Page-1" stroke="none" stroke-width="1" fill="none" fill-rule="evenodd">
        <g id="DKO_podklady_loga_piktogramy" transform="translate(-833.000000, -246.000000)" fill="#000000" fill-rule="nonzero">
            <path d="M833.921,307.384 L833.921,287.457 L839.547,287.457 L839.547,288.985 L835.449,288.985 L835.449,305.855 L843.646,305.855 L843.646,269.466 L845.76,269.466 L848.86,246.177 L851.958,269.466 L854.076,269.466 L854.076,287.456 L863.797,287.456 L863.797,307.384 L833.921,307.384 Z M854.076,305.856 L862.268,305.856 L862.268,288.986 L854.076,288.986 L854.076,305.856 Z M845.175,305.856 L852.548,305.856 L852.548,270.996 L845.175,270.996 L845.175,305.856 Z M847.303,269.467 L850.419,269.467 L848.86,257.76 L847.303,269.467 Z M860.478,296.773 L855.935,296.773 L855.935,292.245 L860.478,292.245 L860.478,296.773 Z M857.463,295.245 L858.949,295.245 L858.949,293.773 L857.463,293.773 L857.463,295.245 Z M841.836,296.773 L837.296,296.773 L837.296,292.245 L841.836,292.245 L841.836,296.773 Z M838.824,295.245 L840.308,295.245 L840.308,293.773 L838.824,293.773 L838.824,295.245 Z M848.855,276.974 C848.417,276.974 847.975,276.849 847.584,276.59 C847.074,276.251 846.728,275.733 846.608,275.133 C846.49,274.533 846.613,273.923 846.954,273.415 C847.654,272.369 849.081,272.086 850.133,272.787 C850.643,273.125 850.99,273.643 851.11,274.244 C851.23,274.845 851.108,275.455 850.764,275.963 C850.322,276.619 849.595,276.974 848.855,276.974 Z M849.5,275.109 C849.611,274.941 849.652,274.739 849.611,274.541 C849.572,274.342 849.457,274.171 849.29,274.059 C848.935,273.823 848.457,273.918 848.225,274.266 C848.111,274.437 848.069,274.638 848.108,274.836 C848.146,275.034 848.264,275.206 848.433,275.318 C848.785,275.552 849.263,275.457 849.5,275.109 Z" id="ico-radnice"></path>
        </g>
    </g>
</svg>