<?xml version="1.0" encoding="UTF-8"?>
<svg width="37px" height="38px" viewBox="0 0 37 38" version="1.1" xmlns="http://www.w3.org/2000/svg" xmlns:xlink="http://www.w3.org/1999/xlink">
    <title>ico-fotoatelier</title>
    <g id="Page-1" stroke="none" stroke-width="1" fill="none" fill-rule="evenodd">
        <g id="DKO_podklady_loga_piktogramy" transform="translate(-639.000000, -180.000000)" fill="#000000" fill-rule="nonzero">
            <g id="ico-fotoatelier" transform="translate(639.000000, 180.000000)">
                <path d="M17.706,23.657 C15.775,23.657 14.205,22.087 14.205,20.157 C14.205,18.228 15.775,16.657 17.706,16.657 C19.637,16.657 21.208,18.228 21.208,20.157 C21.208,22.087 19.637,23.657 17.706,23.657 Z M17.706,18.015 C16.525,18.015 15.563,18.976 15.563,20.156 C15.563,21.337 16.525,22.298 17.706,22.298 C18.887,22.298 19.849,21.338 19.849,20.156 C19.849,18.977 18.887,18.015 17.706,18.015 Z" id="Shape"></path>
                <path d="M22.272,11.335 C22.272,11.902 21.811,12.361 21.242,12.361 C20.676,12.361 20.217,11.902 20.217,11.335 C20.217,10.767 20.676,10.309 21.242,10.309 C21.812,10.309 22.272,10.768 22.272,11.335" id="Path"></path>
                <rect id="Rectangle" x="9.949" y="16.333" width="2.116" height="2.117"></rect>
                <polygon id="Path" points="22.022 27.119 7.53 27.119 7.53 13.21 27.882 13.21 27.882 20.904 26.523 20.904 26.523 14.569 8.889 14.569 8.889 25.759 22.022 25.759"></polygon>
                <path d="M25.032,14.568 L17.434,14.568 L17.434,8.103 L25.032,8.103 L25.032,14.568 Z M18.795,13.208 L23.673,13.208 L23.673,9.461 L18.795,9.461 L18.795,13.208 Z" id="Shape"></path>
                <path d="M18.236,37.231 C13.598,37.231 9.183,35.484 5.801,32.313 C2.153,28.891 0.061,24.06 0.061,19.06 C0.061,9.039 8.214,0.885 18.236,0.885 C22.782,0.885 27.132,2.572 30.483,5.634 C34.249,9.072 36.411,13.965 36.411,19.06 C36.411,29.08 28.256,37.231 18.236,37.231 Z M18.236,2.244 C8.964,2.244 1.421,9.787 1.421,19.06 C1.421,23.686 3.357,28.155 6.731,31.322 C9.86,34.256 13.947,35.873 18.237,35.873 C27.508,35.873 35.052,28.331 35.052,19.061 C35.052,14.347 33.051,9.819 29.567,6.638 C26.467,3.804 22.441,2.244 18.236,2.244 Z" id="Shape"></path>
            </g>
        </g>
    </g>
</svg>