<?xml version="1.0" encoding="UTF-8"?>
<svg width="35px" height="50px" viewBox="0 0 35 50" version="1.1" xmlns="http://www.w3.org/2000/svg" xmlns:xlink="http://www.w3.org/1999/xlink">
    <title>ico-klaster</title>
    <g id="Page-1" stroke="none" stroke-width="1" fill="none" fill-rule="evenodd">
        <g id="DKO_podklady_loga_piktogramy" transform="translate(-1024.000000, -257.000000)" fill="#000000" fill-rule="nonzero">
            <path d="M1055.951,306.728 L1054.423,306.728 L1054.423,277.135 L1046.694,277.135 L1046.694,265.093 L1036.204,265.093 L1036.204,277.135 L1028.473,277.135 L1028.473,305.17 L1037.158,305.17 L1037.158,291.456 L1045.736,291.456 L1045.736,306.728 L1044.208,306.728 L1044.208,292.984 L1038.687,292.984 L1038.687,306.697 L1026.945,306.697 L1026.945,276.405 C1026.891,276.392 1026.839,276.378 1026.787,276.362 C1025.966,276.114 1025.287,275.562 1024.883,274.805 C1024.479,274.049 1024.393,273.18 1024.638,272.36 C1024.885,271.539 1025.438,270.863 1026.194,270.458 C1026.95,270.051 1027.818,269.966 1028.636,270.212 C1029.455,270.459 1030.131,271.013 1030.537,271.771 C1031.228,273.068 1030.939,274.634 1029.928,275.606 L1034.677,275.606 L1034.677,263.564 L1039.745,263.564 C1039.332,263.279 1038.99,262.896 1038.747,262.44 C1037.91,260.88 1038.499,258.931 1040.056,258.093 C1040.811,257.686 1041.677,257.599 1042.498,257.848 C1043.317,258.096 1043.992,258.648 1044.397,259.404 C1045.175,260.854 1044.72,262.646 1043.394,263.564 L1048.223,263.564 L1048.223,275.606 L1052.964,275.606 C1052.726,275.376 1052.52,275.106 1052.36,274.805 L1052.36,274.805 C1051.525,273.245 1052.111,271.296 1053.668,270.458 C1055.227,269.621 1057.177,270.21 1058.015,271.77 C1058.846,273.332 1058.257,275.282 1056.703,276.117 C1056.461,276.246 1056.212,276.343 1055.954,276.407 L1055.954,306.728 L1055.951,306.728 Z M1027.708,271.604 C1027.435,271.604 1027.164,271.671 1026.916,271.804 C1026.519,272.017 1026.229,272.37 1026.101,272.802 C1025.969,273.232 1026.016,273.688 1026.228,274.084 L1026.228,274.084 C1026.442,274.48 1026.795,274.77 1027.225,274.899 C1027.653,275.028 1028.106,274.982 1028.5,274.772 C1029.316,274.333 1029.625,273.31 1029.188,272.491 C1028.976,272.095 1028.623,271.804 1028.193,271.675 C1028.033,271.627 1027.869,271.604 1027.708,271.604 Z M1053.704,274.084 C1053.918,274.48 1054.272,274.77 1054.701,274.899 C1055.128,275.028 1055.583,274.983 1055.976,274.771 C1056.792,274.333 1057.101,273.31 1056.663,272.49 C1056.226,271.674 1055.203,271.366 1054.389,271.804 C1053.572,272.243 1053.268,273.265 1053.704,274.084 L1053.704,274.084 Z M1041.568,259.24 C1041.296,259.24 1041.024,259.307 1040.777,259.44 C1039.963,259.879 1039.653,260.902 1040.09,261.72 C1040.302,262.115 1040.655,262.405 1041.083,262.535 C1041.513,262.665 1041.966,262.619 1042.361,262.408 C1043.178,261.968 1043.485,260.944 1043.048,260.127 C1042.836,259.73 1042.482,259.44 1042.052,259.312 C1041.895,259.263 1041.732,259.24 1041.568,259.24 Z" id="ico-klaster"></path>
        </g>
    </g>
</svg>