<?xml version="1.0" encoding="UTF-8"?>
<svg width="36px" height="36px" viewBox="0 0 36 36" version="1.1" xmlns="http://www.w3.org/2000/svg" xmlns:xlink="http://www.w3.org/1999/xlink">
    <title>ico-pronajem</title>
    <g id="Page-1" stroke="none" stroke-width="1" fill="none" fill-rule="evenodd">
        <g id="DKO_podklady_loga_piktogramy" transform="translate(-220.000000, -182.000000)" fill="#000000" fill-rule="nonzero">
            <path d="M238.175,217.231 C233.681,217.231 229.404,215.538 226.131,212.465 C222.601,209.152 220.576,204.474 220.576,199.632 C220.576,189.926 228.472,182.029 238.176,182.029 C242.576,182.029 246.789,183.662 250.04,186.627 C253.686,189.957 255.777,194.696 255.777,199.631 C255.776,209.337 247.879,217.231 238.175,217.231 Z M238.175,183.389 C229.219,183.389 221.935,190.676 221.935,199.633 C221.935,204.1 223.803,208.417 227.061,211.475 C230.081,214.311 234.028,215.873 238.175,215.873 C244.945,215.873 250.76,211.71 253.196,205.81 L248.084,205.81 C246.988,206.704 245.59,207.24 244.068,207.24 L244.068,207.229 L230.66,207.229 C230.659,207.229 230.657,207.229 230.656,207.229 C229.506,207.229 228.567,206.292 228.564,205.138 C228.564,204.874 228.613,204.621 228.701,204.388 L227.202,204.388 C226.649,204.39 226.12,204.174 225.723,203.778 C225.326,203.382 225.107,202.858 225.107,202.299 C225.106,201.769 225.301,201.266 225.661,200.874 C225.304,200.487 225.107,199.987 225.107,199.457 C225.106,198.9 225.323,198.371 225.722,197.971 C226.118,197.573 226.643,197.353 227.2,197.352 L227.961,197.352 C227.875,197.121 227.829,196.873 227.829,196.62 C227.828,195.462 228.767,194.516 229.923,194.513 L229.925,195.196 L229.925,194.513 L239.605,194.513 L236.922,192.358 C236.023,191.635 235.878,190.315 236.6,189.415 C237.326,188.515 238.647,188.372 239.545,189.094 L247.392,195.398 L253.853,195.398 C253.052,192.441 251.422,189.734 249.124,187.635 C246.124,184.896 242.236,183.389 238.175,183.389 Z M230.661,204.387 C230.26,204.388 229.921,204.731 229.922,205.135 C229.923,205.54 230.252,205.87 230.656,205.87 C230.656,205.87 230.657,205.87 230.657,205.87 L244.403,205.87 C247.008,205.696 249.075,203.522 249.075,200.875 C249.075,199.247 248.278,197.715 246.943,196.778 L238.692,190.151 C238.377,189.898 237.913,189.948 237.658,190.266 C237.405,190.58 237.455,191.043 237.772,191.297 L243.464,195.871 L229.925,195.871 C229.524,195.871 229.186,196.214 229.187,196.618 C229.187,196.815 229.263,196.998 229.402,197.137 C229.542,197.276 229.726,197.352 229.922,197.352 L239.146,197.352 L239.146,198.711 L229.925,198.711 C229.921,198.711 229.92,198.711 229.92,198.711 L227.202,198.711 C227.01,198.711 226.826,198.789 226.686,198.93 C226.543,199.071 226.466,199.259 226.46699,199.454 C226.46699,199.652 226.544,199.836 226.682,199.975 C226.821,200.114 227.005,200.191 227.2,200.191 C227.201,200.191 227.201,200.191 227.201,200.191 L238.387,200.191 L238.387,201.549 L227.204,201.549 C227.011,201.549 226.827,201.627 226.687,201.768 C226.544,201.912 226.466,202.099 226.46699,202.296 C226.46699,202.493 226.543,202.677 226.682,202.815 C226.821,202.953 227.003,203.028 227.197,203.028 C227.197,203.028 227.198,203.028 227.199,203.028 L239.141,203.028 L239.141,204.387 L230.661,204.387 L230.661,204.387 Z M249.332,204.45 L253.687,204.45 C254.161,202.928 254.416,201.309 254.416,199.633 C254.416,198.661 254.328,197.698 254.158,196.754 L248.924,196.754 C249.882,197.883 250.435,199.345 250.435,200.875 C250.435,202.2 250.027,203.431 249.332,204.45 Z" id="ico-pronajem"></path>
        </g>
    </g>
</svg>