<?xml version="1.0" encoding="UTF-8"?>
<svg width="27px" height="32px" viewBox="0 0 27 32" version="1.1" xmlns="http://www.w3.org/2000/svg" xmlns:xlink="http://www.w3.org/1999/xlink">
    <title>ico-kalendar</title>
    <g id="Page-1" stroke="none" stroke-width="1" fill="none" fill-rule="evenodd">
        <g id="DKO_podklady_loga_piktogramy" transform="translate(-1024.000000, -105.000000)" fill="#000000" fill-rule="nonzero">
            <path d="M1050.211,136.359 L1029.4,136.359 L1029.4,131.194 L1024.013,131.194 L1024.623,130.23 C1029.472,122.559 1029.402,106.113 1029.399,105.948 L1029.393,105.314 L1050.209,105.314 L1050.209,136.359 L1050.211,136.359 Z M1030.658,135.102 L1048.955,135.102 L1048.955,120.542 C1048.244,124.43 1047.09,128.276 1045.225,130.926 L1045.037,131.194 L1030.659,131.194 L1030.659,135.102 L1030.658,135.102 Z M1026.25,129.936 L1044.38,129.936 C1048.621,123.526 1048.839,109.848 1048.83,106.571 L1030.656,106.571 C1030.629,109.616 1030.27,122.525 1026.25,129.936 Z" id="ico-kalendar"></path>
        </g>
    </g>
</svg>