<?xml version="1.0" encoding="UTF-8"?>
<svg width="31px" height="50px" viewBox="0 0 31 50" version="1.1" xmlns="http://www.w3.org/2000/svg" xmlns:xlink="http://www.w3.org/1999/xlink">
    <title>ico-rozvoj</title>
    <g id="Page-1" stroke="none" stroke-width="1" fill="none" fill-rule="evenodd">
        <g id="DKO_podklady_loga_piktogramy" transform="translate(-640.000000, -88.000000)" fill="#000000" fill-rule="nonzero">
            <g id="ico-rozvoj" transform="translate(640.000000, 88.000000)">
                <path d="M26.092,16.221 C23.292,13.438 19.581,11.903 15.635,11.903 L15.606,11.903 C11.646,11.908 7.93,13.458 5.136,16.263 C2.341,19.063 0.809,22.79 0.816968826,26.746 L2.358,26.742 C2.351,23.199 3.727,19.862 6.228,17.349 C8.73,14.836 12.06,13.449 15.608,13.441 L15.635,13.441 C19.17,13.441 22.496,14.815 25.007,17.314 C27.517,19.816 28.903,23.148 28.909,26.696 L30.45,26.691 C30.443,22.734 28.897,19.015 26.092,16.221" id="Path"></path>
                <path d="M15.591,9.457 C18.004,9.457 19.986,7.59 20.172,5.225 L21.846,5.225 L20.636,3.621 L19.422,2.02 L18.214,3.621 L16.998,5.225 L18.616,5.225 C18.429,6.738 17.152,7.92 15.591,7.92 C13.902,7.92 12.526,6.544 12.526,4.854 C12.526,3.167 13.902,1.794 15.591,1.794 L15.591,0.254 C13.051,0.254 10.9869996,2.319 10.9869996,4.854 C10.986,7.389 13.051,9.457 15.591,9.457" id="Path"></path>
                <path d="M15.599,18.291 C10.163,18.291 7.225,34.359 7.225,49.479 L8.769,49.479 C8.769,32.009 12.367,19.83 15.623,19.83 C18.855,19.83 22.455,32.009 22.455,49.479 L23.997,49.479 C23.997,34.358 21.061,18.291 15.599,18.291" id="Path"></path>
            </g>
        </g>
    </g>
</svg>