<?xml version="1.0" encoding="UTF-8"?>
<svg width="87px" height="49px" viewBox="0 0 87 49" version="1.1" xmlns="http://www.w3.org/2000/svg" xmlns:xlink="http://www.w3.org/1999/xlink">
    <title>Group</title>
    <g id="Page-1" stroke="none" stroke-width="1" fill="none" fill-rule="evenodd">
        <g id="DKO_podklady_loga_piktogramy" transform="translate(-195.000000, -265.000000)" fill="#000000" fill-rule="nonzero">
            <g id="Group" transform="translate(195.000000, 265.000000)">
                <path d="M86.153,48.427 L0.198,48.427 L0.198,0.645 L86.078,0.645 L86.078,37.966 L84.393,37.966 L84.393,2.329 L43.988,2.329 L43.988,46.744 L86.153,46.744 L86.153,48.427 L86.153,48.427 Z M1.882,46.743 L42.287,46.743 L42.287,2.328 L1.882,2.328 L1.882,46.743 L1.882,46.743 Z" id="Shape"></path>
                <path d="M63.157,28.536 C63.157,27.049 63.507,26.351 64.599,25.073 C65.435,24.096 66.551,22.981 66.551,21.469 C66.551,19.842 65.203,19.121 63.738,19.121 C62.205,19.121 61.065,19.494 60.298,20.051 L60.135,17.843 C61.158,17.401 62.437,17.074 63.994,17.074 C66.528,17.074 69.015,18.539 69.015,21.306 C69.015,23.747 67.085,25.025 65.83,26.908 C65.458,27.466 65.342,27.954 65.342,28.605 L65.342,29.024 L63.156,29.024 L63.156,28.536 L63.157,28.536 Z M62.949,30.977 L65.553,30.977 L65.553,33.581 L62.949,33.581 L62.949,30.977 Z" id="Shape"></path>
                <path d="M22.796,29.16 L20.55,29.16 L20.55,28.741 C20.55,28.09 20.431,27.602 20.049,27.044 C18.758,25.161 16.775,23.883 16.775,21.442 C16.775,18.676 19.332,17.211 21.938,17.211 C23.539,17.211 24.853,17.537 25.904,17.978 L25.736,20.186 C24.948,19.629 23.777,19.257 22.2,19.257 C20.695,19.257 19.309,19.978 19.309,21.604 C19.309,23.116 20.455,24.231 21.316,25.207 C22.44,26.487 22.797,27.184 22.797,28.671 L22.797,29.16 L22.796,29.16 Z M23.011,33.715 L20.334,33.715 L20.334,31.111 L23.011,31.111 L23.011,33.715 Z" id="Shape"></path>
            </g>
        </g>
    </g>
</svg>