<?xml version="1.0" encoding="UTF-8"?>
<svg width="48px" height="42px" viewBox="0 0 48 42" version="1.1" xmlns="http://www.w3.org/2000/svg" xmlns:xlink="http://www.w3.org/1999/xlink">
    <title>ico-svatby</title>
    <g id="Page-1" stroke="none" stroke-width="1" fill="none" fill-rule="evenodd">
        <g id="DKO_podklady_loga_piktogramy" transform="translate(-420.000000, -176.000000)" fill-rule="nonzero">
            <g id="ico-svatby" transform="translate(420.000000, 176.000000)">
                <path d="M25.438,40.755 C25.438,21.895 21.839,2.224 15.139,2.224 C8.463,2.224 4.862,21.895 4.862,40.757 L25.438,40.755 Z" id="Path" fill="#FFFFFF"></path>
                <path d="M4.183,41.437 L4.183,40.757 C4.183,24.994 7.1,1.545 15.14,1.545 C23.195,1.545 26.119,24.994 26.119,40.755 L26.119,41.435 L4.183,41.437 Z M15.139,2.904 C9.814,2.904 5.632,19.177 5.542,40.078 L24.758,40.076 C24.669,19.175 20.476,2.904 15.139,2.904 Z" id="Shape" fill="#000000"></path>
                <path d="M21.309,40.755 C21.309,30.47 19.154,19.536 15.143,19.536 C11.145,19.536 8.99,30.47 8.99,40.755 L21.309,40.755 Z" id="Path" fill="#FFFFFF"></path>
                <path d="M21.989,41.435 L8.311,41.435 L8.311,40.755 C8.311,33.181 9.74,18.857 15.144,18.857 C20.559,18.857 21.989,33.182 21.989,40.755 L21.989,41.435 Z M9.671,40.076 L20.626,40.076 C20.531,29.063 18.108,20.215 15.144,20.215 C12.187,20.215 9.769,29.063 9.671,40.076 Z" id="Shape" fill="#000000"></path>
                <path d="M12.147,11.618 C12.147,15.456 13.198,19.536 15.153,19.536 C17.101,19.536 18.149,15.456 18.149,11.618 L12.147,11.618 Z" id="Path" fill="#FFFFFF"></path>
                <path d="M15.153,20.215 C12.62,20.215 11.467,15.759 11.467,11.618 L11.467,10.938 L18.8280007,10.938 L18.8280007,11.618 C18.829,15.759 17.68,20.215 15.153,20.215 Z M12.838,12.297 C12.956,15.862 13.988,18.856 15.153,18.856 C16.314,18.856 17.342,15.862 17.46,12.297 L12.838,12.297 Z" id="Shape" fill="#000000"></path>
                <path d="M18.429,5.126 C18.429,6.935 16.96,8.403 15.15,8.403 C13.339,8.403 11.872,6.935 11.872,5.126 C11.872,3.317 13.34,1.847 15.15,1.847 C16.96,1.848 18.429,3.317 18.429,5.126" id="Path" fill="#FFFFFF"></path>
                <path d="M15.15,9.083 C12.967,9.083 11.192,7.308 11.192,5.126 C11.192,2.943 12.967,1.168 15.15,1.168 C17.332,1.168 19.1080004,2.943 19.1080004,5.126 C19.109,7.308 17.333,9.083 15.15,9.083 Z M15.15,2.527 C13.716,2.527 12.551,3.693 12.551,5.126 C12.551,6.558 13.716,7.724 15.15,7.724 C16.583,7.724 17.7490006,6.558 17.7490006,5.126 C17.75,3.693 16.583,2.527 15.15,2.527 Z" id="Shape" fill="#000000"></path>
                <path d="M4.513,17.245 C4.513,18.142 3.784,18.87 2.887,18.87 C1.987,18.87 1.261,18.141 1.261,17.245 C1.261,16.347 1.988,15.62 2.887,15.62 C3.784,15.621 4.513,16.347 4.513,17.245" id="Path" fill="#FFFFFF"></path>
                <path d="M2.887,19.55 C1.615,19.55 0.581,18.516 0.581,17.245 C0.581,15.975 1.614,14.941 2.887,14.941 C4.157,14.941 5.192,15.975 5.192,17.245 C5.192,18.516 4.157,19.55 2.887,19.55 Z M2.887,16.3 C2.364,16.3 1.941,16.724 1.941,17.245 C1.941,17.766 2.364,18.191 2.887,18.191 C3.408,18.191 3.833,17.766 3.833,17.245 C3.833,16.724 3.408,16.3 2.887,16.3 Z" id="Shape" fill="#000000"></path>
                <path d="M7.762,17.245 C7.762,18.142 7.035,18.87 6.137,18.87 C5.239,18.87 4.513,18.141 4.513,17.245 C4.513,16.347 5.239,15.62 6.137,15.62 C7.035,15.621 7.762,16.347 7.762,17.245" id="Path" fill="#FFFFFF"></path>
                <path d="M6.137,19.55 C4.866,19.55 3.833,18.516 3.833,17.245 C3.833,15.975 4.866,14.941 6.137,14.941 C7.408,14.941 8.442,15.975 8.442,17.245 C8.442,18.516 7.409,19.55 6.137,19.55 Z M6.137,16.3 C5.615,16.3 5.192,16.724 5.192,17.245 C5.192,17.766 5.615,18.191 6.137,18.191 C6.659,18.191 7.083,17.766 7.083,17.245 C7.083,16.724 6.659,16.3 6.137,16.3 Z" id="Shape" fill="#000000"></path>
                <path d="M11.013,17.245 C11.013,18.142 10.285,18.87 9.39,18.87 C8.493,18.87 7.762,18.141 7.762,17.245 C7.762,16.347 8.492,15.62 9.39,15.62 C10.285,15.621 11.013,16.347 11.013,17.245" id="Path" fill="#FFFFFF"></path>
                <path d="M9.39,19.55 C8.118,19.55 7.083,18.516 7.083,17.245 C7.083,15.975 8.118,14.941 9.39,14.941 C10.66,14.941 11.693,15.975 11.693,17.245 C11.693,18.516 10.66,19.55 9.39,19.55 Z M9.39,16.3 C8.867,16.3 8.442,16.724 8.442,17.245 C8.442,17.766 8.867,18.191 9.39,18.191 C9.911,18.191 10.334,17.766 10.334,17.245 C10.334,16.724 9.911,16.3 9.39,16.3 Z" id="Shape" fill="#000000"></path>
                <path d="M9.388,20.265 C9.388,21.163 8.659,21.891 7.763,21.891 C6.864,21.891 6.137,21.163 6.137,20.265 C6.137,19.367 6.865,18.64 7.763,18.64 C8.659,18.64 9.388,19.367 9.388,20.265" id="Path" fill="#FFFFFF"></path>
                <path d="M7.763,22.57 C6.492,22.57 5.456,21.536 5.456,20.265 C5.456,18.994 6.492,17.96 7.763,17.96 C9.034,17.96 10.067,18.995 10.067,20.265 C10.067,21.536 9.034,22.57 7.763,22.57 Z M7.763,19.319 C7.241,19.319 6.816,19.743 6.816,20.265 C6.816,20.786 7.241,21.211 7.763,21.211 C8.284,21.211 8.708,20.786 8.708,20.265 C8.708,19.743 8.285,19.319 7.763,19.319 Z" id="Shape" fill="#000000"></path>
                <path d="M6.137,20.265 C6.137,21.163 5.409,21.891 4.513,21.891 C3.615,21.891 2.887,21.163 2.887,20.265 C2.887,19.367 3.615,18.64 4.513,18.64 C5.409,18.64 6.137,19.367 6.137,20.265" id="Path" fill="#FFFFFF"></path>
                <path d="M4.513,22.57 C3.241,22.57 2.207,21.536 2.207,20.265 C2.207,18.994 3.241,17.96 4.513,17.96 C5.783,17.96 6.817,18.995 6.817,20.265 C6.817,21.536 5.783,22.57 4.513,22.57 Z M4.513,19.319 C3.991,19.319 3.567,19.743 3.567,20.265 C3.567,20.786 3.991,21.211 4.513,21.211 C5.034,21.211 5.45700177,20.786 5.45700177,20.265 C5.458,19.743 5.034,19.319 4.513,19.319 Z" id="Shape" fill="#000000"></path>
                <path d="M35.523,8.506 C33.43,8.506 31.728,6.804 31.728,4.713 C31.728,2.62 33.43,0.917 35.523,0.917 C37.614,0.917 39.316,2.62 39.316,4.713 C39.316,6.805 37.614,8.506 35.523,8.506 Z M35.523,2.276 C34.18,2.276 33.087,3.369 33.087,4.713 C33.087,6.056 34.179,7.148 35.523,7.148 C36.865,7.148 37.957,6.056 37.957,4.713 C37.957,3.369 36.865,2.276 35.523,2.276 Z" id="Shape" fill="#000000"></path>
                <polygon id="Path" fill="#000000" points="36.946 9.393 34.089 9.397 35.515 11.361"></polygon>
                <polygon id="Path" fill="#000000" points="34.127 13.282 35.519 18.173 36.916 13.282 36.916 13.282 35.524 11.361"></polygon>
                <path d="M39.037,41.392 C38.962,35.357 37.722,29.478 35.53,24.668 C33.332,29.479 32.093,35.356 32.018,41.392 L30.659,41.374 C30.742,34.729 32.2,28.258 34.77,23.105 C32.557,18.637 31.454,15.289 30.981,11.54 C30.416,11.804 29.871,12.117 29.355,12.476 C26.476,14.491 24.751,17.79 24.744,21.301 L23.385,21.343 L23.385,21.3 C23.393,17.346 25.335,13.632 28.579,11.362 C29.434,10.767 30.356,10.286 31.32,9.928 L32.146,9.622 L32.232,10.499 C32.593,14.179 33.536,17.372 35.53,21.561 C37.519,17.382 38.462,14.189 38.826,10.504 L38.906,9.701 L39.683,9.917 C40.73,10.305 41.633,10.78 42.46,11.358 C45.71,13.626 47.654,17.343 47.662,21.297 L46.302,21.299 C46.296,17.788 44.569,14.487 41.683,12.471 C41.178,12.118 40.639,11.807 40.076,11.545 C39.601,15.298 38.498,18.647 36.29,23.107 C38.856,28.257 40.314,34.73 40.396,41.374 L39.037,41.392 Z" id="Path" fill="#000000"></path>
            </g>
        </g>
    </g>
</svg>