<?xml version="1.0" encoding="UTF-8"?>
<svg width="84px" height="34px" viewBox="0 0 84 34" version="1.1" xmlns="http://www.w3.org/2000/svg" xmlns:xlink="http://www.w3.org/1999/xlink">
    <title>ico-dko</title>
    <g id="Page-1" stroke="none" stroke-width="1" fill="none" fill-rule="evenodd">
        <g id="DKO_podklady_loga_piktogramy" transform="translate(-616.000000, -273.000000)" fill="#000000" fill-rule="nonzero">
            <g id="ico-dko" transform="translate(616.000000, 273.000000)">
                <polygon id="Path" points="83.71 33.728 50.494 33.728 50.494 16.822 34.208 16.822 34.208 33.728 0.991 33.728 0.991 15.444 29.07 15.444 29.07 16.822 2.367 16.822 2.367 32.352 32.83 32.352 32.83 15.444 51.87 15.444 51.87 32.352 82.334 32.352 82.334 16.822 54.96 16.822 54.96 11.791 50.899 11.791 50.899 10.906 47.16 10.906 47.16 9.952 45.188 9.952 45.188 8.954 39.525 8.954 39.525 9.952 37.555 9.952 37.555 10.906 33.816 10.906 33.816 11.791 29.07 11.791 29.07 10.417 32.439 10.417 32.439 9.531 36.181 9.531 36.181 8.575 38.147 8.575 38.147 7.577 46.564 7.577 46.564 8.575 48.538 8.575 48.538 9.531 52.277 9.531 52.277 10.417 56.336 10.417 56.336 15.444 83.71 15.444"></polygon>
                <path d="M37.715,22.038 L40.376,22.038 L40.376,19.377 L37.715,19.377 L37.715,22.038 Z M41.752,23.415 L36.339,23.415 L36.339,18 L41.752,18 L41.752,23.415 Z" id="Shape"></path>
                <path d="M37.715,28.637 L40.376,28.637 L40.376,25.975 L37.715,25.975 L37.715,28.637 Z M41.752,30.013 L36.339,30.013 L36.339,24.601 L41.752,24.601 L41.752,30.013 Z" id="Shape"></path>
                <path d="M44.319,22.038 L46.983,22.038 L46.983,19.377 L44.319,19.377 L44.319,22.038 Z M48.359,23.415 L42.946,23.415 L42.946,18 L48.359,18 L48.359,23.415 Z" id="Shape"></path>
                <path d="M44.319,28.637 L46.983,28.637 L46.983,25.975 L44.319,25.975 L44.319,28.637 Z M48.359,30.013 L42.946,30.013 L42.946,24.601 L48.359,24.601 L48.359,30.013 Z" id="Shape"></path>
                <path d="M56.435,22.038 L59.097,22.038 L59.097,19.377 L56.435,19.377 L56.435,22.038 Z M60.471,23.415 L55.059,23.415 L55.059,18 L60.471,18 L60.471,23.415 Z" id="Shape"></path>
                <path d="M56.435,28.637 L59.097,28.637 L59.097,25.976 L56.435,25.976 L56.435,28.637 Z M60.471,30.013 L55.059,30.013 L55.059,24.6 L60.471,24.6 L60.471,30.013 Z" id="Shape"></path>
                <path d="M63.04,22.038 L65.701,22.038 L65.701,19.377 L63.04,19.377 L63.04,22.038 Z M67.08,23.415 L61.662,23.415 L61.662,18 L67.08,18 L67.08,23.415 Z" id="Shape"></path>
                <path d="M63.04,28.637 L65.701,28.637 L65.701,25.976 L63.04,25.976 L63.04,28.637 Z M67.08,30.013 L61.662,30.013 L61.662,24.6 L67.08,24.6 L67.08,30.013 Z" id="Shape"></path>
                <path d="M69.648,22.038 L72.31,22.038 L72.31,19.377 L69.648,19.377 L69.648,22.038 Z M73.685,23.415 L68.273,23.415 L68.273,18 L73.685,18 L73.685,23.415 Z" id="Shape"></path>
                <path d="M69.648,28.637 L72.31,28.637 L72.31,25.976 L69.648,25.976 L69.648,28.637 Z M73.685,30.013 L68.273,30.013 L68.273,24.6 L73.685,24.6 L73.685,30.013 Z" id="Shape"></path>
                <path d="M12.393,22.038 L15.057,22.038 L15.057,19.377 L12.393,19.377 L12.393,22.038 Z M16.433,23.415 L11.017,23.415 L11.017,18 L16.433,18 L16.433,23.415 Z" id="Shape"></path>
                <path d="M12.393,28.637 L15.057,28.637 L15.057,25.976 L12.393,25.976 L12.393,28.637 Z M16.433,30.013 L11.017,30.013 L11.017,24.6 L16.433,24.6 L16.433,30.013 Z" id="Shape"></path>
                <path d="M19.002,22.038 L21.663,22.038 L21.663,19.377 L19.002,19.377 L19.002,22.038 Z M23.039,23.415 L17.626,23.415 L17.626,18 L23.039,18 L23.039,23.415 Z" id="Shape"></path>
                <path d="M19.002,28.637 L21.663,28.637 L21.663,25.976 L19.002,25.976 L19.002,28.637 Z M23.039,30.013 L17.626,30.013 L17.626,24.6 L23.039,24.6 L23.039,30.013 Z" id="Shape"></path>
                <path d="M25.606,22.038 L28.267,22.038 L28.267,19.377 L25.606,19.377 L25.606,22.038 Z M29.644,23.415 L24.231,23.415 L24.231,18 L29.644,18 L29.644,23.415 Z" id="Shape"></path>
                <path d="M25.606,28.637 L28.267,28.637 L28.267,25.976 L25.606,25.976 L25.606,28.637 Z M29.644,30.013 L24.231,30.013 L24.231,24.6 L29.644,24.6 L29.644,30.013 Z" id="Shape"></path>
                <path d="M42.372,2.192 C42.145,2.192 41.93,2.247 41.729,2.354 C41.407,2.528 41.171,2.815 41.068,3.161 C40.964,3.51 41.002,3.878 41.172,4.199 C41.411,4.644 41.872,4.919 42.376,4.919 C42.603,4.919 42.816,4.864 43.018,4.756 C43.681,4.402 43.933,3.573 43.575,2.912 C43.337,2.468 42.876,2.192 42.372,2.192 M42.376,6.296 L42.376,6.296 C41.365,6.296 40.438,5.741 39.961,4.852 C39.613,4.206 39.54,3.465 39.751,2.763 C39.962,2.065 40.433,1.489 41.076,1.142 C41.474,0.928 41.924,0.817 42.372,0.817 C43.382,0.817 44.31,1.37 44.788,2.261 C45.503,3.59 45,5.255 43.668,5.971 C43.271,6.182 42.826,6.296 42.376,6.296" id="Shape"></path>
            </g>
        </g>
    </g>
</svg>