<?xml version="1.0" encoding="UTF-8"?>
<svg width="25px" height="26px" viewBox="0 0 25 26" version="1.1" xmlns="http://www.w3.org/2000/svg" xmlns:xlink="http://www.w3.org/1999/xlink">
    <title>Shape</title>
    <g id="Page-1" stroke="none" stroke-width="1" fill="none" fill-rule="evenodd">
        <g id="DKO_podklady_loga_piktogramy" transform="translate(-1030.000000, -364.000000)" fill="#FFFFFF" fill-rule="nonzero">
            <path d="M1042.564,372.509 C1045.205,372.509 1047.331,374.634 1047.331,377.279 C1047.331,379.923 1045.205,382.047 1042.564,382.047 C1039.918,382.047 1037.794,379.923 1037.794,377.279 C1037.795,374.634 1039.918,372.509 1042.564,372.509 M1042.564,370.602 C1038.891,370.602 1035.886,373.605 1035.886,377.279 C1035.886,380.95 1038.891,383.952 1042.564,383.952 C1046.234,383.952 1049.237,380.95 1049.237,377.279 C1049.237,373.604 1046.234,370.602 1042.564,370.602 M1050.19,368.693 C1049.662,368.693 1049.237,369.12 1049.237,369.648 C1049.237,370.177 1049.662,370.601 1050.19,370.601 C1050.72,370.601 1051.145,370.177 1051.145,369.648 C1051.146,369.12 1050.721,368.693 1050.19,368.693 M1037.363,366.786 L1047.76,366.786 C1050.697,366.786 1053.05,369.143 1053.05,372.076 L1053.05,382.477 C1053.05,385.411 1050.696,387.766 1047.768,387.766 L1037.363,387.766 C1034.428,387.766 1032.073,385.411 1032.073,382.482 L1032.073,372.076 C1032.073,369.144 1034.429,366.786 1037.363,366.786 M1037.363,364.88 C1033.4,364.88 1030.167,368.113 1030.167,372.076 L1030.167,382.482 C1030.167,386.439 1033.4,389.671 1037.363,389.671 L1047.768,389.671 C1051.724,389.671 1054.957,386.439 1054.957,382.477 L1054.957,372.076 C1054.957,368.113 1051.724,364.88 1047.76,364.88 L1037.363,364.88 Z" id="Shape"></path>
        </g>
    </g>
</svg>