<?xml version="1.0" encoding="UTF-8"?>
<svg width="30px" height="29px" viewBox="0 0 30 29" version="1.1" xmlns="http://www.w3.org/2000/svg" xmlns:xlink="http://www.w3.org/1999/xlink">
    <title>Shape</title>
    <g id="Page-1" stroke="none" stroke-width="1" fill="none" fill-rule="evenodd">
        <g id="DKO_podklady_loga_piktogramy" transform="translate(-885.000000, -364.000000)" fill="#FFFFFF" fill-rule="nonzero">
            <path d="M908.369,382.51 C908.369,383.349 907.687,384.027 906.851,384.027 L892.932,384.027 C892.094,384.027 891.415,383.349 891.415,382.51 L891.415,374.506 C891.415,374.418 891.425,374.331 891.44,374.249 L899.437,379.236 C899.448,379.241 899.458,379.243 899.468,379.251 C899.48,379.255 899.489,379.262 899.5,379.269 C899.555,379.298 899.614,379.321 899.674,379.335 C899.68,379.338 899.686,379.34 899.691,379.34 C899.758,379.358 899.824,379.364 899.89,379.364 L899.89,379.364 L899.892,379.364 C899.957,379.364 900.023,379.357 900.089,379.34 C900.094,379.34 900.102,379.338 900.108,379.335 C900.168,379.32 900.226,379.298 900.281,379.269 C900.292,379.262 900.303,379.255 900.312,379.251 C900.324,379.243 900.334,379.241 900.342,379.236 L908.343,374.249 C908.357,374.331 908.367,374.418 908.367,374.506 L908.367,382.51 L908.369,382.51 Z M892.933,372.991 L906.852,372.991 C906.935,372.991 907.013,373 907.091,373.011 L899.892,377.499 L892.695,373.011 C892.772,373 892.851,372.991 892.933,372.991 M899.892,363.985 C892.078,363.985 885.745,370.316 885.745,378.133 C885.745,385.945 892.078,392.279 899.892,392.279 C907.707,392.279 914.038,385.946 914.038,378.133 C914.037,370.316 907.707,363.985 899.892,363.985" id="Shape"></path>
        </g>
    </g>
</svg>