<?xml version="1.0" encoding="UTF-8"?>
<svg width="29px" height="29px" viewBox="0 0 29 29" version="1.1" xmlns="http://www.w3.org/2000/svg" xmlns:xlink="http://www.w3.org/1999/xlink">
    <title>Shape</title>
    <g id="Page-1" stroke="none" stroke-width="1" fill="none" fill-rule="evenodd">
        <g id="DKO_podklady_loga_piktogramy" transform="translate(-837.000000, -364.000000)" fill="#FFFFFF" fill-rule="nonzero">
            <path d="M859.239,384.628 L858.106,385.76 C857.906,385.962 857.31,386.088 857.291,386.088 C853.71,386.117 850.259,384.712 847.723,382.176 C845.181,379.633 843.772,376.169 843.809,372.574 C843.809,372.574 843.939,371.998 844.142,371.799 L845.274,370.665 C845.689,370.25 846.485,370.062 847.043,370.248 L847.281,370.326 C847.839,370.513 848.423,371.128 848.575,371.692 L849.143,373.785 C849.298,374.353 849.091,375.161 848.677,375.575 L847.92,376.332 C848.663,379.082 850.82,381.238 853.568,381.984 L854.325,381.225 C854.74,380.81 855.552,380.603 856.116,380.758 L858.206,381.328 C858.772,381.481 859.39,382.063 859.575,382.619 L859.654,382.861 C859.84,383.42 859.654,384.216 859.239,384.628 M851.769,363.985 C843.956,363.985 837.622,370.316 837.622,378.131 C837.622,385.943 843.956,392.278 851.769,392.278 C859.581,392.278 865.916,385.943 865.916,378.131 C865.916,370.316 859.58,363.985 851.769,363.985" id="Shape"></path>
        </g>
    </g>
</svg>